<svg width="95" height="100" viewBox="0 0 95 100" fill="none" xmlns="http://www.w3.org/2000/svg">
<path d="M94.2994 81.5868C91.2685 76.3544 80.6042 66.9797 72.8585 62.2923C72.7462 58.9131 63.7657 42.0168 57.2549 38.7466C57.2549 38.7466 44.3454 20.6512 39.5184 20.1062C37.61 12.2576 29.4153 -9.65303 8.64788 4.84506C8.64788 4.84506 0.116397 4.62704 0.00414053 5.17208C-0.220372 6.48018 8.76013 9.64141 8.76013 9.64141C8.76013 9.64141 14.3729 20.8693 11.5665 28.2818C8.98465 35.1493 14.1484 53.4627 39.9674 62.0743C39.9674 62.0743 23.4657 75.5913 24.925 83.4399C21.7819 88.2363 19.649 91.9426 20.4348 92.2696C21.7819 92.8146 22.3431 99.4641 22.3431 99.0281C22.2309 96.5209 24.5883 91.6155 27.8437 86.0561C28.854 87.1462 31.9972 88.0183 33.3443 83.3309C33.3443 83.3309 31.6604 82.8949 31.2114 81.6958C31.1366 81.4778 30.9869 81.2598 30.7624 81.0417C33.681 76.4634 36.712 71.8851 39.1816 68.3968C40.1919 68.7238 42.7738 68.9418 43.4473 67.7427C44.6821 65.6716 44.7944 64.0365 44.1209 62.6194C46.9273 62.1833 50.4072 62.7284 54.5607 62.9464C62.1941 66.9797 70.3888 70.2499 70.3888 70.2499C70.3888 70.2499 81.39 80.0607 83.8596 80.0607C86.4415 80.0607 88.3498 82.5679 89.1356 83.1129C90.2582 83.7669 88.1253 80.8237 88.7989 80.8237C89.4724 80.8237 93.2891 83.0039 93.2891 83.0039L91.3808 80.4967C91.3808 80.4967 94.6362 82.1318 94.2994 81.5868Z" fill="#FBF8F1"/>
</svg>
