<svg width="116" height="100" viewBox="0 0 116 100" fill="none" xmlns="http://www.w3.org/2000/svg">
<path d="M0 25.6291C2.45179 29.8306 6.9227 32.3515 11.3936 32.0714C14.4223 39.2139 11.6821 43.1353 13.2685 49.4376C14.855 55.8799 21.345 58.5408 22.9314 63.8627C24.8063 70.7251 22.0661 80.8087 21.0565 90.3321C18.6048 90.052 10.9609 93.4132 14.1338 99.0152C20.047 99.0152 24.9506 99.0152 27.1139 99.0152C28.7004 92.2928 32.4502 85.0102 34.0366 75.0667C35.4788 86.4107 39.5171 85.5704 47.0167 91.4525C40.6709 89.912 28.9888 90.3321 29.5657 99.0152C38.2191 99.0152 69.227 99.0152 69.227 99.0152C69.5154 98.7351 73.121 96.7744 74.2748 96.6343C78.4573 97.7547 84.6588 99.2953 88.2644 99.0152C105.571 98.0348 109.754 97.0545 114.657 82.6294C119.128 64.5629 97.2062 41.8749 96.3409 51.8184C96.1967 54.1993 112.638 66.9438 108.744 82.6294C105.138 97.3346 89.5624 93.9734 85.38 91.7326C90.2835 46.6366 60.2852 42.5751 60.2852 42.5751C60.2852 42.5751 43.1226 36.4129 37.3537 31.9313C34.6135 29.6905 32.3059 21.0075 28.7004 15.5455C23.2199 7.28259 13.557 7.28259 6.05736 0C5.19202 4.06144 4.47091 10.6438 6.9227 13.5848C2.45179 15.4055 2.45179 22.2679 0 25.6291Z" fill="#FBF8F1"/>
</svg>
