<svg width="91" height="100" viewBox="0 0 91 100" fill="none" xmlns="http://www.w3.org/2000/svg">
<path d="M63.8289 0C62.5249 0 60.9312 0.844164 60.3516 2.67319C52.0931 16.3205 49.1954 21.1041 45.863 33.3445C40.3573 47.9767 31.5192 49.665 20.5079 58.9508C11.6698 66.4076 9.20673 78.9294 13.2636 88.0745C14.8573 91.7325 11.6698 93.2802 9.49651 89.4814C5.72946 82.5874 5.58457 74.9899 8.77207 68.2366C10.0761 65.5634 8.33742 62.4682 5.87435 62.6089C4.57037 62.6089 3.55617 63.453 2.97662 64.7193C-2.23929 76.6783 0.0788921 89.3407 4.71526 95.2499C7.03344 98.0638 10.5107 99.4707 13.988 98.9079C15.4368 98.7672 17.6101 98.0637 19.9283 96.9382C21.9567 98.2044 24.4198 99.0486 27.1726 99.0486H45.1386C44.8488 95.672 42.3857 92.5767 39.488 92.436C38.7636 92.2953 38.184 91.3104 38.6187 90.4663L43.8346 78.9294C44.8488 76.6783 44.7039 74.5679 43.9795 72.7388C43.255 70.7691 41.8062 69.0808 39.9226 67.9552C38.184 66.9704 39.6329 64.86 41.0817 65.7041C43.255 66.9704 45.1386 69.0808 46.1528 71.6133C47.167 74.1458 47.167 77.241 45.863 80.1956L41.0817 90.4663C41.9511 90.7477 42.7721 91.1697 43.5448 91.7325C48.0363 90.4663 50.7891 88.6373 52.5278 86.2455L55.1357 99.0486H70.4937C70.059 95.8126 67.7408 92.7174 64.8431 92.7174C64.4084 92.7174 63.8289 92.2953 63.8289 91.5918C62.6698 86.5268 61.8005 82.0246 61.8005 75.9748C61.8005 74.8492 63.2493 74.4272 63.3942 75.5527C64.1187 80.8991 64.4084 85.542 66.0022 90.4663C70.2039 90.607 72.5221 94.8278 72.8118 99.0486H80.6357C80.6357 94.4057 77.4482 90.607 73.3914 90.1849C66.4368 65.8448 72.9567 65.9855 68.6101 38.5502C68.0306 34.8921 69.0448 33.6259 72.5221 33.2038L82.809 31.6562C87.88 30.9527 89.0391 28.2795 89.9084 25.747C90.9226 22.9331 89.9084 21.1041 87.7351 20.5413C81.7948 18.9937 80.2011 18.2902 77.738 14.4915C75.9994 11.8183 74.4056 10.13 72.2323 9.4265V4.6429C72.2323 1.68833 68.3204 1.68833 67.1613 4.6429L66.292 6.61262V2.67319C66.292 0.844164 65.1329 0 63.8289 0Z" fill="#FBF8F1"/>
</svg>
