<svg width="90" height="101" viewBox="0 0 90 101" fill="none" xmlns="http://www.w3.org/2000/svg">
<path fill-rule="evenodd" clip-rule="evenodd" d="M90 57.1477C83.8434 58.9872 77.4501 57.6076 74.135 53.2387C73.8193 52.7789 73.5431 52.319 73.3063 51.8591L51.2847 76.4626C58.0333 85.8901 67.2681 89.6841 75.4374 92.6733C63.2427 97.7319 50.9296 96.6972 41.3395 87.6146H41.2211L40.1556 86.6949C35.3014 90.8338 32.1047 95.8924 31.0392 100.721C27.0137 93.4781 27.6057 85.2003 32.9335 80.6015L2.3875 54.8483C-1.51954 51.0543 0.0195951 48.525 2.3875 45.8807C4.8738 43.1214 35.5382 8.74556 35.5382 8.74556V8.86052C42.5235 0.352782 57.2045 -2.29152 72.4775 2.07732C63.8346 5.41144 55.9022 12.1946 50.6928 21.5072L73.3063 40.5921C74.6086 37.4879 76.9765 34.3838 80.2916 32.0844C81.5545 31.1646 82.8963 30.3981 84.317 29.785C78.8708 35.8784 78.3973 44.9609 83.4883 51.7441C85.2642 54.1585 87.5137 55.883 90 57.1477ZM21.094 43.2364C21.094 41.8568 20.0284 40.7071 18.6077 40.7071C17.1869 40.7071 16.003 41.8568 16.003 43.2364C16.003 44.616 17.1869 45.7657 18.6077 45.7657C20.0284 45.7657 21.094 44.616 21.094 43.2364Z" fill="#FBF8F1"/>
</svg>
