<svg width="134" height="100" viewBox="0 0 134 100" fill="none" xmlns="http://www.w3.org/2000/svg">
<path d="M48.7449 98.6613C48.3518 98.2796 48.2913 97.9272 48.4425 97.2519C48.9264 95.2551 48.8054 94.6678 47.6866 93.9631C45.3884 92.5243 45.0256 92.0838 43.7555 89.2062C43.06 87.6205 41.6993 84.9191 40.7014 83.2453C38.6754 79.8685 34.9258 74.2307 34.6537 74.2013C34.3815 74.172 32.3555 80.7201 31.8112 83.3628C31.1762 86.5635 30.9041 90.9386 31.267 92.0251C31.4484 92.4949 32.4463 94.0806 33.5349 95.49C34.5932 96.9289 35.5608 98.2796 35.6818 98.4851C35.8632 98.7494 35.0166 98.8375 31.8112 98.8375H27.729V97.9566C27.729 97.4868 27.9407 96.6352 28.2128 96.0773L28.7269 95.0202L27.4569 93.9044C26.3078 92.8473 26.2171 92.6417 26.2171 91.291C26.2171 90.4688 26.5497 88.4134 26.9428 86.7396C28.1221 81.9533 28.9386 77.1671 28.9386 75.0822C28.9386 72.7038 29.3014 71.9109 32.5067 67.1247C33.8675 65.1279 35.198 62.8082 35.4399 62.0154C35.9842 60.2829 35.8028 59.4901 33.8675 55.1442C31.5089 49.7413 31.2065 48.5668 31.2065 44.8082C31.2065 40.8441 31.6298 39.2878 33.6256 36.4395L34.8956 34.5603L33.8675 34.3547C32.4765 34.1198 29.7248 34.4722 27.8197 35.1475C24.7051 36.2927 21.8627 39.5521 20.2903 43.8686C17.8712 50.358 16.1778 52.7364 12.8213 54.3514C10.2208 55.5847 7.43884 55.9664 3.53805 55.6434C2.11683 55.526 0.604893 55.4085 0.21179 55.3792C-0.272029 55.3498 0.0908351 55.1736 1.11895 54.9681C6.92478 53.7054 9.49507 51.4444 10.4627 46.7169C11.6723 40.8735 12.1258 39.3172 13.4261 36.8213C15.1195 33.5325 17.7502 30.8017 20.3508 29.6271C21.9232 28.8931 22.4675 28.805 25.3099 28.805C28.7571 28.805 29.9062 29.1573 33.7768 31.4477C36.3471 32.9746 36.9216 33.004 39.5524 31.8001C43.302 30.0382 44.9651 29.6859 49.1985 29.7152C51.9805 29.7152 53.7343 29.8914 56.0022 30.3906C66.1927 32.6516 73.0266 32.7691 78.8929 30.8311C81.4027 30.0089 83.1868 29.0399 84.3057 27.8653C84.9407 27.2193 85.2128 26.4852 85.6059 24.3123C87.2086 15.1802 93.9216 7.60434 103.084 4.55051C106.924 3.28786 112.639 2.84741 115.421 3.5815C115.784 3.66959 116.026 3.37596 116.298 2.46568C117.024 0.0872162 117.236 -0.294512 117.508 0.175308C117.629 0.410218 117.931 1.49668 118.143 2.6125C118.354 3.69896 118.627 4.57987 118.748 4.57987C118.869 4.57987 119.05 4.11005 119.171 3.49341C119.443 2.17204 120.229 0.175308 120.532 0.175308C120.804 0.175308 121.409 2.46568 121.65 4.43305C121.802 5.84251 122.074 6.34169 123.404 7.92734C125.975 10.9518 126.882 12.5668 127.245 14.5929C127.487 16.0317 128.122 17.4706 129.906 20.5831C133.565 27.0725 133.685 27.4249 132.93 30.0089C132.415 31.8588 131.085 32.8865 129.543 32.6516C127.97 32.4167 127.517 32.0643 126.368 30.42C125.34 28.8931 122.588 26.5146 120.441 25.3107C119.715 24.8996 117.931 24.1655 116.449 23.6663L113.758 22.7854L112.911 23.7544C111.672 25.1051 110.311 28.0415 109.736 30.5081C109.041 33.4151 109.071 41.3139 109.797 46.6875C110.432 51.6206 110.281 53.2356 108.89 55.8783L107.892 57.8457L109.948 60.2242C112.549 63.1899 116.661 67.2421 117.78 67.8881C118.536 68.2992 118.687 68.6809 119.171 71.1769C119.987 75.4052 121.62 81.5129 123.011 85.4476C124.221 88.9419 124.221 88.9419 124.039 92.2013C123.918 93.9925 123.767 95.6956 123.676 95.9598C123.556 96.4003 123.011 96.0773 120.834 94.3448C117.78 91.9664 117.538 91.3497 119.05 90.0871C120.199 89.0887 120.169 88.7364 118.929 87.3856C117.992 86.3873 117.901 86.0936 117.689 83.8326C117.417 80.6026 116.51 76.3155 115.693 74.495C114.937 72.7625 113.002 70.9126 110.009 69.0333C107.952 67.7413 103.386 65.4216 101.723 64.8049C100.907 64.5113 100.907 64.5406 100.907 65.5097C100.907 66.0676 100.272 68.8278 99.546 71.6467C97.4595 79.5162 96.6733 85.3595 97.0966 89.8522L97.3083 92.0838L99.9996 95.4313C101.481 97.2812 102.721 98.8375 102.721 98.8962C102.721 98.9256 100.907 98.9843 98.6993 98.9843H94.7078L94.738 98.1034C94.7682 97.6336 94.8892 96.8701 95.0102 96.4297C95.1916 95.7249 95.0404 95.5194 93.8006 94.6678C93.0446 94.1393 92.3189 93.4346 92.2282 93.0822C92.1375 92.7005 92.3189 90.4688 92.6213 88.061C93.0446 84.7135 93.1354 82.247 93.0446 77.2551C92.9842 73.7021 92.9237 68.9158 92.8935 66.5961C92.8935 63.1606 92.8027 62.3971 92.4399 62.309C90.3836 61.7217 87.0876 61.4575 79.286 61.2519C71.8775 61.0464 69.6701 60.8995 67.251 60.4004C64.0457 59.725 59.7216 58.3743 57.0908 57.2584C56.1837 56.8767 55.3672 56.5537 55.2463 56.5537C55.1253 56.5537 54.2484 57.6989 53.3412 59.1377C52.4038 60.5472 50.0754 63.7478 48.1402 66.2437C42.1226 74.0839 41.79 75.2584 44.2998 80.2209C46.7189 85.0072 50.7709 91.2323 54.7322 96.1948C55.8208 97.5749 56.6675 98.72 56.6372 98.72C56.607 98.7494 54.9439 98.8375 52.9179 98.955C49.7126 99.1311 49.1683 99.0724 48.7449 98.6613Z" fill="#FBF8F1"/>
</svg>
