<svg width="119" height="100" viewBox="0 0 119 100" fill="none" xmlns="http://www.w3.org/2000/svg">
<path d="M21.7863 25.7838C21.6502 25.916 21.514 26.0482 21.3778 26.1804C19.1311 28.1638 16.4759 31.1389 14.2292 34.7089C13.0037 33.7833 12.3229 32.5933 12.1867 31.1389C11.574 27.5688 13.8207 22.6104 18.7226 16.8586C19.7439 18.4453 21.3778 22.0154 21.7863 25.7838Z" fill="#FBF8F1"/>
<path d="M117.987 55.336C115.944 57.9144 110.225 61.2861 104.71 60.2944C104.302 60.2944 103.894 60.4927 103.689 60.6911C103.689 60.6911 97.7661 66.4428 91.6387 70.2112C87.9623 72.3929 86.3283 75.5663 86.7368 79.9297V81.1198C86.941 84.6898 87.3495 89.6482 94.2939 94.0117C94.8386 94.2761 95.4513 94.6067 96.1321 95.0033C97.7661 95.7967 99.8086 96.9867 100.83 97.9784C99.1958 98.7717 95.5194 99.9618 92.2514 98.3751C90.4132 97.5817 87.5538 94.4083 85.5113 92.425C85.1028 92.0283 84.7624 91.6316 84.4901 91.2349C83.8773 90.6399 83.6731 89.2516 83.4688 88.0616C83.4688 87.4004 83.4007 86.8054 83.2646 86.2765C82.2434 83.6981 77.7499 77.9464 77.3414 77.3514C77.0691 77.0869 76.7968 76.9547 76.5244 76.9547C76.3883 76.9547 76.2521 76.9547 76.1159 76.9547C72.031 77.9464 67.9461 75.5663 67.9461 75.368C67.6738 75.2358 67.3333 75.2358 66.9248 75.368C66.6525 75.5002 66.4483 75.7647 66.3121 76.1613C64.8824 82.1114 62.2272 81.9131 60.5932 81.7148C56.304 81.5164 51.6063 82.1114 49.3596 82.5081C50.1766 78.9381 53.0361 78.1447 55.487 77.3514C56.1679 77.2191 56.8487 77.0208 57.5295 76.7564C59.7762 75.963 59.7762 73.1863 59.3677 71.9963C59.3677 71.5996 59.1635 71.3351 58.755 71.2029C50.7894 69.0212 45.8874 62.2778 45.8874 62.2778C45.4789 61.8811 45.0704 61.6828 44.4577 61.8811C31.7944 67.4345 18.5184 58.906 18.3141 58.7077C17.9056 58.7077 17.7014 58.5094 17.2929 58.7077C17.0206 58.8399 16.8163 59.1044 16.6802 59.501C16.2717 61.0877 17.2929 63.6661 18.5184 66.0462L18.7226 66.6412C20.5608 70.4096 19.9481 73.9796 18.5184 75.5663C17.9056 76.3597 17.0886 76.7564 16.4759 76.7564C15.8632 76.558 15.8632 73.3846 16.0674 72.1946C16.0674 71.0046 16.0674 70.0129 16.0674 69.2196C15.6589 67.2362 14.0249 64.4595 12.7995 62.2778C12.5271 61.6166 12.2548 61.0877 11.9825 60.6911C10.9612 58.7077 9.73576 56.7243 8.10179 57.3193C6.46781 57.716 6.46781 60.0961 6.46781 60.6911C9.94001 73.583 8.30603 78.7397 7.08055 80.7231C6.67206 81.3181 6.26357 81.7148 6.05932 81.9131C2.38288 73.3846 1.56589 64.4595 0.748905 57.3193C0.544658 54.9393 0.340411 52.5593 0.136164 50.5759C-0.136165 48.7247 6.08703e-08 47.4686 0.544658 46.8075C1.36165 46.2125 2.79137 46.0141 4.2211 46.2125C6.05932 46.2125 7.89754 46.4108 8.10179 46.4108C8.30603 46.4108 8.71453 46.2125 8.91877 45.8158C12.5952 43.6341 13.4122 42.6424 13.8207 40.8574C15.4547 35.7006 19.3354 30.5439 22.6033 27.7672C30.3647 21.222 36.0836 21.0237 40.9855 21.0237H42.211C42.4833 21.0237 42.7557 21.0237 43.028 21.0237C55.6913 21.0237 64.8824 28.7588 72.4395 34.9073C75.299 37.4857 78.1584 39.8657 80.8136 41.4524C83.6731 43.0391 85.5113 42.2457 86.3283 41.6507C87.9623 40.4607 88.3708 37.684 87.758 36.494C86.941 34.1139 85.7156 32.1306 84.4901 29.9489C80.4051 23.4037 75.9117 15.8669 80.8136 0.396674C82.2434 1.58669 84.4901 4.16507 85.3071 8.72682C85.3071 9.32183 85.7155 9.7185 86.3283 9.7185C86.941 9.7185 87.3495 9.32183 87.3495 8.72682C87.5538 6.74345 88.1665 1.98337 90.6175 0C92.0472 1.38836 97.1534 8.33015 94.9067 34.7089C94.9067 34.9734 95.0428 35.2378 95.3151 35.5023C95.5875 35.6345 95.8598 35.7006 96.1321 35.7006C96.7449 35.7006 111.042 34.3123 116.148 47.2042C116.557 48.1958 116.761 48.9892 117.578 50.5759C118.599 53.1543 118.599 54.3443 117.987 55.336Z" fill="#FBF8F1"/>
</svg>
