<svg width="177" height="177" viewBox="0 0 177 177" fill="none" xmlns="http://www.w3.org/2000/svg">
<g clip-path="url(#clip0_6_32)">
<path d="M147.307 39.7624C146.918 38.6631 144.755 38.0574 142.617 38.8124C140.48 39.5678 139.177 41.3979 139.564 42.4973C139.953 43.5966 144.081 49.7639 146.219 49.0086C148.357 48.2532 147.695 40.8614 147.307 39.7624Z" fill="black"/>
<path d="M176.92 138.997L169.908 99.4515C168.79 93.1438 163.328 88.5661 156.923 88.5661H142.279L140.971 72.6513C142.994 68.9481 145.316 62.4136 146.718 58.2123C147.059 57.1928 147.806 56.36 148.782 55.9102C149.758 55.4605 150.878 55.4318 151.874 55.8366C154.187 56.7766 156.842 56.0897 158.41 54.1472L160.331 51.766C160.763 51.2308 160.943 50.5353 160.826 49.8573C160.709 49.1794 160.306 48.5851 159.719 48.2263L156.495 46.253C155.785 43.4107 153.55 41.202 150.7 40.5247L150.624 40.5067C150.792 41.789 150.865 43.3533 150.833 44.595C150.681 50.5003 148.207 52.1957 145.833 52.1957C142.983 52.1957 140.501 49.429 138.767 47.0945C138.367 47.6289 137.98 48.1485 137.623 48.6287C134.676 46.5566 112.927 31.2682 109.841 29.0985C109.888 28.3809 109.829 27.6442 109.642 26.9092C108.689 23.1663 104.883 20.9068 101.143 21.8599L53.1425 34.0829C49.5389 34.0829 20.6001 34.0825 16.8008 34.0825C7.72474 34.0825 0.303874 41.4661 0.258242 50.5422L1.43932e-06 101.898C-0.0197036 105.758 3.09474 108.903 6.9552 108.923C6.96696 108.923 6.97906 108.923 6.99081 108.923C10.8347 108.923 13.9609 105.817 13.9802 101.968L14.2381 50.6123V50.6116C14.2423 49.847 14.8645 49.2299 15.6289 49.2323C16.3932 49.2347 17.0117 49.8553 17.0117 50.6193L17.0148 168.122C17.0148 172.755 20.7702 176.511 25.4036 176.511C30.0368 176.511 33.7925 172.755 33.7925 168.122V101.073H37.4144V168.122C37.4144 172.755 41.1698 176.511 45.8029 176.511C50.436 176.511 54.1917 172.755 54.1917 168.122C54.1917 57.6937 54.0396 119.583 54.0396 48.0621L104.593 35.4076C105.526 35.1701 106.366 34.7549 107.088 34.208C109.601 35.9742 129.519 49.9766 132.032 51.7431L109.374 55.0951C107.816 55.3257 106.353 55.9213 105.092 56.8115C101.86 55.9711 98.8421 54.134 96.2693 50.7392C95.1219 49.2568 94.0765 47.4654 93.345 45.7915C93.0788 45.182 92.4103 44.854 91.7662 45.0182L91.7638 45.0185C91.109 45.1852 90.7087 45.8451 90.8629 46.503C91.0589 47.3406 91.3095 48.2059 91.565 48.9578C91.9404 50.0751 92.4535 51.3618 93.1445 52.6952C94.8706 56.0948 97.415 59.0541 100.848 61.2061C99.7277 62.5816 98.951 64.3748 98.6675 66.3771L98.6619 66.3743C98.4276 68.0624 97.9429 72.8203 98.2257 76.8547C98.2775 77.5972 98.3563 78.3225 98.467 79.0101L94.1374 88.565H84.0024C77.5969 88.565 72.1355 93.1428 71.0171 99.4505L64.0042 138.997C63.5102 141.782 65.3673 144.44 68.1523 144.933C70.9369 145.428 73.595 143.57 74.0887 140.785L81.1013 101.24C81.3509 99.8304 82.5709 98.8082 84.0017 98.8082H156.922C158.353 98.8082 159.572 99.8308 159.822 101.24L166.835 140.786C167.329 143.572 169.989 145.428 172.772 144.934C175.557 144.44 177.415 141.782 176.92 138.997ZM101.235 88.5657L103.899 82.6739C104.755 82.1996 105.656 81.5469 106.55 80.7919C109.243 78.5158 111.6 75.9002 112.964 73.5397C114.044 71.6705 114.699 69.2105 114.699 66.6837C114.699 65.7254 115.476 64.949 116.434 64.949C117.392 64.949 118.169 65.7254 118.169 66.6837C118.169 68.8454 117.76 70.8947 117.031 72.728C123.456 73.5567 130.315 74.396 134.673 74.8966L135.797 88.5654H101.235V88.5657Z" fill="black"/>
<path d="M35.6016 0.489563C27.6003 0.489563 21.1138 6.97599 21.1138 14.9773C21.1138 23.0422 27.6763 29.465 35.6016 29.465C43.5655 29.465 50.0893 23.0042 50.0893 14.9773C50.0893 6.97565 43.6029 0.489563 35.6016 0.489563Z" fill="black"/>
</g>
<defs>
<clipPath id="clip0_6_32">
<rect width="177" height="177" fill="white"/>
</clipPath>
</defs>
</svg>
