<svg width="177" height="177" viewBox="0 0 177 177" fill="none" xmlns="http://www.w3.org/2000/svg">
<g clip-path="url(#clip0_6_42)">
<path d="M123.24 109.972C120.628 109.05 117.985 109.79 117.51 111.133C117.036 112.476 116.228 121.507 118.84 122.429C121.452 123.352 126.496 115.817 126.97 114.474C127.445 113.131 125.853 110.895 123.24 109.972Z" fill="black"/>
<path d="M176.117 145.867C175.42 145.612 174.649 145.971 174.394 146.668L174.366 146.745C173.902 148.019 173.319 149.259 172.701 150.37C170.539 154.301 167.29 157.85 163.641 159.561C163.334 155.985 161.421 151.238 151.463 142.293C133.826 130.624 129.583 124.894 129.583 124.894C129.583 124.894 128.569 123.12 127.301 120.934C124.813 124.078 121.366 127.369 117.569 126.028C113.396 124.554 113.251 118.896 113.204 117.037C113.165 115.52 113.253 113.609 113.459 112.042L113.366 112.064C109.884 112.891 107.153 115.591 106.285 119.063L102.346 121.474C100.843 122.394 100.492 124.428 101.598 125.799L103.946 128.708C105.861 131.082 109.105 131.92 111.931 130.773C113.148 130.278 114.517 130.313 115.709 130.862C116.902 131.412 117.815 132.43 118.23 133.675C119.839 138.495 122.439 145.828 124.796 150.451L120.432 170.539C119.97 172.669 121.321 174.77 123.451 175.233C125.584 175.696 127.683 174.341 128.145 172.214L131.395 157.25C133.31 157.902 135.801 158.416 138.503 158.924C139.229 156.782 140.442 154.77 142.147 153.066C142.924 152.289 144.183 152.289 144.96 153.066C145.76 153.866 145.696 155.143 144.96 155.879C141.865 158.973 140.962 163.383 142.189 167.254H138.079H137.606C135.426 167.254 133.66 169.021 133.66 171.2C133.66 173.379 135.426 175.146 137.606 175.146C154.411 175.146 152.22 175.139 154.529 175.155C158.473 175.155 162.106 170.91 163.245 166.861C168.645 164.313 173.383 159.127 175.863 151.742C176.326 150.38 176.723 148.884 176.982 147.351C177.088 146.726 176.736 146.092 176.117 145.867Z" fill="black"/>
<path d="M14.2346 170.55L15.3167 159.001C11.4749 153.45 10.9947 145.136 12.5414 139.809C8.15787 137.59 3.60082 133.556 0.111634 127.975L-2.81672e-05 167.611C-0.0128192 172.215 3.70937 175.958 8.31344 175.971C8.32139 175.971 8.32969 175.971 8.33764 175.971C10.7413 175.971 12.9023 174.947 14.4244 173.318C14.2174 172.434 14.1455 171.503 14.2346 170.55Z" fill="black"/>
<path d="M32.3958 161.994L31.4424 172.163C31.3165 173.506 30.8899 174.746 30.2393 175.828C34.114 175.12 37.058 171.738 37.0697 167.658L37.1022 156.189C35.5784 158.655 34.0206 160.582 32.3958 161.994Z" fill="black"/>
<path d="M17.7826 31.7093C26.2548 31.7093 33.1228 24.8412 33.1228 16.369C33.1228 7.89686 26.2548 1.02881 17.7826 1.02881C9.31044 1.02881 2.44238 7.89686 2.44238 16.369C2.44238 24.8412 9.31044 31.7093 17.7826 31.7093Z" fill="black"/>
<path d="M92.6169 120.467L88.6005 118.008C87.7429 114.578 85.0827 111.75 81.2848 110.849C81.4946 112.447 81.5848 114.395 81.5454 115.943C81.497 117.838 81.3487 123.608 77.0938 125.111C72.9392 126.578 66.4441 119.147 66.4109 119.192C59.0122 110.94 53.045 101.115 49.2571 91.704C49.3968 91.5654 49.5375 91.4281 49.6685 91.2764C52.3356 88.1785 51.9857 83.505 48.8882 80.8382L30.1269 64.6883L23.0635 47.0122L34.3442 60.581L37.3037 61.9524V47.3015C37.3037 41.9756 32.9866 37.6585 27.6607 37.6585H10.0022C4.67627 37.6585 0.359134 41.9756 0.359134 47.3015C0.359134 109.204 0.225001 88.1363 0.149292 114.866C2.75244 113.543 6.1303 114.101 8.16511 117.291C10.0879 120.275 13.4398 123.486 16.7949 124.996C16.8654 100.116 16.8772 101.778 16.8229 101.189H20.6215C20.5644 101.802 20.5869 99.9151 20.5129 126.085C21.6683 126.259 23.0774 126.186 24.2773 125.993C27.3236 124.514 28.9322 124.5 37.1952 123.278C37.2602 100.273 37.3037 98.8905 37.3037 98.8905C37.3037 98.8905 16.368 81.2876 12.6295 78.0733C11.5008 77.1029 10.8754 75.747 10.7793 74.3708L9.31699 52.5065L17.0524 71.8634C17.4939 72.9683 18.1953 73.9497 19.0969 74.7262L39.2293 92.0573C40.5769 93.2172 42.2224 93.801 43.8714 93.8418C48.0344 104.291 54.6729 114.991 62.8996 123.918L63.0942 124.12C36.0177 127.925 30.9756 128.91 25.7116 130.445C25.4323 130.483 26.1527 130.37 24.4813 130.637C21.5054 131.146 17.2371 130.557 13.7192 128.623C7.73436 125.535 4.29012 119.688 3.94788 119.303C2.908 118.133 0.962731 119.278 1.57048 120.777C3.50883 125.559 7.04953 130.28 10.697 133.114C12.8819 134.887 15.8691 136.541 18.7229 137.372C14.9157 142.883 15.781 152.863 20.087 157.599L18.8325 170.982C18.6251 173.195 20.2509 175.157 22.4637 175.364C24.6676 175.572 26.6374 173.953 26.8455 171.733C27.8961 160.53 27.8017 161.532 27.9912 159.514C30.5487 158.003 32.7201 154.73 34.3041 151.816L34.2297 151.78C35.6928 149.46 36.5276 146.558 36.5276 143.465C36.5276 142.271 37.4959 141.303 38.6893 141.303C39.8827 141.303 40.851 142.271 40.851 143.465C40.851 146.159 40.3411 148.712 39.4329 150.996C45.4357 151.77 57.5602 153.281 60.9892 153.649L60.5405 171.255C60.4838 173.477 62.239 175.323 64.4608 175.38C64.4957 175.381 64.531 175.381 64.5652 175.381C66.7397 175.381 68.5304 173.647 68.5857 171.46L69.1022 151.185C71.7831 146.158 74.145 139.636 75.9855 134.202C76.4263 132.905 76.8131 131.046 78.9917 130.042C82.0187 128.647 82.9683 130.844 86.3839 130.409C87.3449 130.287 88.2306 129.991 89.098 129.476C89.1443 129.449 89.191 129.424 89.2366 129.395C90.4926 128.61 93.467 125.005 93.822 124.13C94.3714 122.773 93.8552 121.225 92.6169 120.467Z" fill="black"/>
<path d="M77.1531 109.922C76.6694 108.552 73.9736 107.798 71.31 108.739C68.6463 109.68 67.0226 111.96 67.5065 113.329C67.9909 114.7 73.1343 122.383 75.7975 121.442C78.4608 120.501 77.6367 111.291 77.1531 109.922Z" fill="black"/>
</g>
<defs>
<clipPath id="clip0_6_42">
<rect width="177" height="177" fill="white"/>
</clipPath>
</defs>
</svg>
