<svg width="270" height="270" viewBox="0 0 270 270" fill="none" xmlns="http://www.w3.org/2000/svg">
<g clip-path="url(#clip0_6_79)">
<path d="M231.749 26.933C228.571 19.9373 224.397 13.4177 218.616 8.37577C212.884 3.32909 205.239 -0.0443314 196.668 0.000492786C192.293 -0.00372596 188.164 0.917543 184.51 2.5059C178.089 5.30082 173.242 9.94198 169.526 14.9169C163.964 22.4115 160.671 30.8712 158.579 37.5463C158.023 39.344 157.56 40.9994 157.173 42.4902H141.851H128.148H112.822C111.7 38.1069 109.863 32.1658 106.988 25.9801C104.198 20.057 100.473 13.8754 95.0394 8.82454C92.3247 6.31016 89.1522 4.09004 85.4892 2.50538C81.8353 0.917016 77.7014 -0.00478065 73.3313 -3.45579e-05C64.8094 -0.0448588 57.1867 3.23522 51.4365 8.197C42.7638 15.6826 37.6064 26.3408 34.2288 37.3638C30.8954 48.4312 29.4758 60.0106 29.4669 69.8988C29.4669 84.9761 29.4669 143.909 29.4669 165.84C29.4711 174.233 30.7757 184.664 34.0105 195.842C38.8699 212.566 48.1354 231.043 64.4229 245.523C80.6704 260.022 103.985 270.053 134.998 269.999C155.678 270.008 172.931 265.616 186.953 258.322C208.029 247.384 221.518 230.144 229.564 212.935C237.632 195.655 240.511 178.401 240.533 165.839C240.533 143.909 240.533 84.9756 240.533 69.8983C240.493 57.1403 238.041 40.9683 231.749 26.933ZM224.086 165.84C224.09 172.519 222.995 181.62 220.192 191.259C215.991 205.757 208.007 221.395 194.661 233.219C181.28 245.03 162.575 253.498 134.998 253.552C116.615 253.543 102.178 249.716 90.6298 243.73C73.3498 234.75 62.2645 220.701 55.3267 205.953C50.8412 196.43 48.2245 186.639 46.9383 178.175C53.5644 178.175 65.1174 178.175 80.991 178.175C107.064 178.175 124.447 153.081 124.447 132.801C124.447 117.204 124.447 76.7828 124.447 58.9333H128.149H141.852H170.787L171.899 52.0266C171.912 51.8083 173.687 41.7245 178.12 32.5086C180.305 27.9023 183.144 23.5859 186.277 20.7647C187.848 19.3408 189.459 18.273 191.128 17.5605C192.814 16.8486 194.568 16.452 196.668 16.4478C201.118 16.4921 204.438 17.9075 207.834 20.7958C212.871 25.0767 217.277 33.2337 220.023 42.5213C222.822 51.7593 224.099 61.995 224.086 69.8983C224.086 84.9761 224.086 143.909 224.086 165.84Z" fill="black"/>
<path d="M133.627 185.024C121.518 185.024 111.701 192.393 111.701 201.472C111.701 210.555 121.518 217.92 133.627 217.92C145.74 217.92 155.557 210.555 155.557 201.472C155.558 192.393 145.741 185.024 133.627 185.024Z" fill="black"/>
<path d="M176.117 145.28C183.688 145.28 189.824 139.143 189.824 131.573C189.824 124.003 183.688 117.867 176.117 117.867C168.547 117.867 162.411 124.003 162.411 131.573C162.411 139.143 168.547 145.28 176.117 145.28Z" fill="black"/>
<path d="M196.214 37.4619C187.082 37.4619 185.249 56.6509 185.249 56.6509H205.354C205.354 56.6509 205.345 37.4619 196.214 37.4619Z" fill="black"/>
</g>
<defs>
<clipPath id="clip0_6_79">
<rect width="270" height="270" fill="white"/>
</clipPath>
</defs>
</svg>
