<svg width="110" height="101" viewBox="0 0 110 101" fill="none" xmlns="http://www.w3.org/2000/svg">
<path d="M9.71209 59.2744C6.43633 62.291 4.59684 66.377 4.59684 70.6369C4.59684 74.8967 6.43633 78.9828 9.71209 81.9994C11.6138 83.7548 13.9393 85.074 16.5 85.85C17.3392 88.2011 18.7696 90.3377 20.6754 92.0867C23.5084 94.6902 27.2285 96.3223 31.2143 96.7104C35.2001 97.0986 39.2103 96.2193 42.5751 94.2194C45.9398 92.2195 48.4554 89.2202 49.7015 85.7224C50.9477 82.2245 50.8491 78.44 49.4221 75.0009L55 69.8794L60.5733 74.9967C59.381 77.8952 59.1225 81.0476 59.8287 84.0773C60.535 87.1071 62.1762 89.8861 64.5563 92.0825C67.8387 95.0954 72.29 96.7879 76.9313 96.7879C81.5725 96.7879 86.0238 95.0954 89.3063 92.0825C91.2184 90.3366 92.6552 88.2013 93.5 85.85C96.0611 85.0805 98.3883 83.767 100.293 82.0162C103.124 79.4134 104.898 75.9979 105.318 72.3395C105.739 68.681 104.78 65.0009 102.602 61.9129C100.425 58.8249 97.1599 56.5158 93.3524 55.3709C89.5448 54.226 85.4247 54.3145 81.6796 55.6215L76.1062 50.5L81.675 45.3827C85.4202 46.6897 89.5402 46.7782 93.3478 45.6333C97.1554 44.4884 100.42 42.1793 102.598 39.0913C104.775 36.0033 105.734 32.3232 105.314 28.6647C104.893 25.0063 103.119 21.5908 100.288 18.988C98.3855 17.2363 96.0599 15.9213 93.5 15.15C92.6617 12.7976 91.2294 10.6605 89.32 8.91324C85.9857 5.99179 81.5539 4.36182 76.945 4.36182C72.3361 4.36182 67.9044 5.99179 64.57 8.91324C62.1899 11.1097 60.5488 13.8887 59.8425 16.9185C59.1362 19.9482 59.3947 23.1006 60.5871 25.9991L55 31.1417L49.4267 26.0033C50.8537 22.5642 50.9523 18.7797 49.7061 15.2818C48.4599 11.784 45.9444 8.78465 42.5797 6.78479C39.2149 4.78493 35.2047 3.90564 31.2189 4.29379C27.2331 4.68194 23.513 6.31403 20.68 8.91745C18.7731 10.6649 17.3412 12.8 16.5 15.15C13.9394 15.9205 11.6124 17.2339 9.7075 18.9838C6.8721 21.585 5.09457 25.0007 4.67183 28.6604C4.24909 32.3201 5.20673 36.0022 7.3848 39.0917C9.56286 42.1811 12.8295 44.4908 16.639 45.635C20.4485 46.7793 24.5703 46.6887 28.3158 45.3785L33.9167 50.5L28.3204 55.6173C25.1635 54.5236 21.7305 54.2868 18.431 54.9352C15.1315 55.5836 12.1048 57.0899 9.71209 59.2744ZM83.3067 64.2528C84.3487 63.607 85.5364 63.1859 86.7808 63.0211C88.0252 62.8563 89.294 62.952 90.4924 63.3012C91.6908 63.6503 92.7876 64.2437 93.7009 65.0371C94.6142 65.8305 95.3202 66.8033 95.7661 67.8826C96.212 68.9619 96.3863 70.1199 96.2759 71.2698C96.1655 72.4197 95.7733 73.5319 95.1286 74.5229C94.4839 75.514 93.6035 76.3583 92.5531 76.9928C91.5028 77.6273 90.3098 78.0354 89.0633 78.1866C88.0742 78.3128 87.1571 78.7322 86.4514 79.3809C85.7457 80.0296 85.2901 80.8722 85.1538 81.7805C84.9203 83.425 84.1056 84.9537 82.8346 86.132C81.2448 87.5238 79.1325 88.3002 76.9358 88.3002C74.7392 88.3002 72.6269 87.5238 71.0371 86.132C69.6814 84.8819 68.836 83.2413 68.6432 81.4861C68.4504 79.7309 68.9219 77.9683 69.9783 76.4949C70.5627 75.6851 70.824 74.7147 70.7179 73.7482C70.6118 72.7818 70.1449 71.8787 69.3962 71.1924L61.4808 63.9288L69.6254 56.4506L77.5363 63.7184C78.2835 64.4047 79.2661 64.8328 80.3177 64.9302C81.3693 65.0276 82.4252 64.7883 83.3067 64.2528ZM32.4638 37.2816C31.7157 36.5949 30.7319 36.1669 29.6793 36.0703C28.6267 35.9736 27.5701 36.2143 26.6888 36.7514C25.6463 37.3959 24.4587 37.8158 23.2147 37.9795C21.9706 38.1432 20.7023 38.0466 19.5047 37.6968C18.3071 37.3471 17.2111 36.7532 16.2986 35.9597C15.3862 35.1662 14.6809 34.1935 14.2356 33.1145C13.7903 32.0354 13.6164 30.8779 13.727 29.7284C13.8376 28.5789 14.2298 27.4673 14.8742 26.4766C15.5187 25.486 16.3987 24.6419 17.4485 24.0075C18.4984 23.3732 19.6908 22.9649 20.9367 22.8134C21.9251 22.6874 22.8417 22.2686 23.5474 21.6208C24.253 20.9729 24.709 20.1312 24.8463 19.2237C25.0193 18.0873 25.4687 17.0013 26.1613 16.0462C26.8539 15.0911 27.7718 14.2915 28.8469 13.7066C29.9221 13.1217 31.1268 12.7667 32.3718 12.6677C33.6169 12.5688 34.8701 12.7286 36.0387 13.1351C37.2073 13.5417 38.2612 14.1847 39.1222 15.0163C39.9831 15.848 40.6291 16.847 41.0121 17.9392C41.3952 19.0313 41.5055 20.1887 41.3348 21.3254C41.1641 22.462 40.7169 23.5488 40.0263 24.5051C39.4413 25.3144 39.1792 26.2845 39.2845 27.251C39.3897 28.2175 39.8558 29.1207 40.6038 29.8076L48.5192 37.0712L40.3746 44.5494L32.4638 37.2816ZM32.4638 63.7184L69.3962 29.8076C70.1449 29.1213 70.6118 28.2182 70.7179 27.2518C70.824 26.2853 70.5627 25.3149 69.9783 24.5051C68.9219 23.0317 68.4504 21.2691 68.6432 19.5139C68.836 17.7587 69.6814 16.1181 71.0371 14.868C72.6269 13.4762 74.7392 12.6997 76.9358 12.6997C79.1325 12.6997 81.2448 13.4762 82.8346 14.868C84.1056 16.0463 84.9203 17.575 85.1538 19.2195C85.2901 20.1278 85.7457 20.9704 86.4514 21.6191C87.1571 22.2678 88.0742 22.6872 89.0633 22.8134C90.3015 22.9719 91.4849 23.3844 92.5257 24.0204C93.5664 24.6564 94.4378 25.4995 95.075 26.4871C95.7122 27.4747 96.099 28.5814 96.2065 29.725C96.3141 30.8686 96.1397 32.0198 95.6963 33.0931C95.2528 34.1663 94.5518 35.1341 93.6452 35.9245C92.7386 36.7149 91.6498 37.3076 90.4595 37.6587C89.2692 38.0097 88.0081 38.1101 86.7698 37.9523C85.5315 37.7945 84.3478 37.3826 83.3067 36.7472C82.4252 36.2117 81.3693 35.9724 80.3177 36.0698C79.2661 36.1672 78.2835 36.5953 77.5363 37.2816L40.6038 71.1924C39.8558 71.8793 39.3897 72.7825 39.2845 73.749C39.1792 74.7155 39.4413 75.6856 40.0263 76.4949C40.7283 77.452 41.1855 78.5425 41.3638 79.6847C41.5422 80.827 41.4369 81.9915 41.056 83.0911C40.675 84.1908 40.0283 85.1971 39.164 86.0349C38.2998 86.8727 37.2405 87.5202 36.0653 87.9291C34.89 88.338 33.6294 88.4976 32.3775 88.3961C31.1256 88.2946 29.9149 87.9345 28.8359 87.3427C27.757 86.751 26.8377 85.943 26.1468 84.9791C25.4559 84.0151 25.0113 82.9203 24.8463 81.7763C24.709 80.8688 24.253 80.0271 23.5474 79.3792C22.8417 78.7313 21.9251 78.3126 20.9367 78.1866C19.7018 78.0253 18.5223 77.6111 17.4854 76.9747C16.4485 76.3383 15.5807 75.4959 14.9462 74.5099C14.3118 73.5239 13.9269 72.4195 13.8202 71.2785C13.7134 70.1375 13.8874 68.9891 14.3294 67.9182C14.7713 66.8472 15.4699 65.8813 16.3734 65.0918C17.2769 64.3022 18.3621 63.7094 19.5489 63.357C20.7357 63.0047 21.9935 62.9019 23.2294 63.0562C24.4653 63.2105 25.6476 63.6181 26.6888 64.2486C27.5701 64.7857 28.6267 65.0264 29.6793 64.9297C30.7319 64.8331 31.7157 64.4051 32.4638 63.7184Z" fill="#A1C398"/>
</svg>
