<svg width="110" height="101" viewBox="0 0 110 101" fill="none" xmlns="http://www.w3.org/2000/svg">
<path d="M97.0475 21.9633C99.3114 24.0439 100.654 26.8219 100.814 29.7593C100.975 32.6966 99.9419 35.5841 97.9161 37.8622C95.8904 40.1404 93.0157 41.647 89.8492 42.0902C86.6827 42.5334 83.4497 41.8816 80.7767 40.2611L43.8487 74.1677C45.6136 76.622 46.3235 79.5905 45.8408 82.4979C45.3581 85.4053 43.7172 88.0448 41.2361 89.9048C38.7549 91.7649 35.6102 92.7131 32.4111 92.5657C29.212 92.4184 26.1864 91.1859 23.9204 89.1073C21.9424 87.2804 20.6734 84.9071 20.3087 82.3529C17.5351 82.0137 14.9591 80.8488 12.9754 79.0367C10.7115 76.9561 9.36927 74.1781 9.20879 71.2407C9.0483 68.3034 10.081 65.4159 12.1068 63.1378C14.1326 60.8596 17.0072 59.353 20.1737 58.9098C23.3402 58.4666 26.5732 59.1184 29.2462 60.7389L66.1742 26.8323C64.4093 24.378 63.6994 21.4096 64.1821 18.5021C64.6648 15.5947 66.3057 12.9552 68.7868 11.0952C71.268 9.23516 74.4127 8.28696 77.6118 8.43431C80.8109 8.58166 83.8365 9.81407 86.1025 11.8928C88.0805 13.7196 89.3495 16.0929 89.7141 18.6471C92.4878 18.9863 95.0638 20.1512 97.0475 21.9633ZM80.7767 60.7389L76.1062 56.4506L61.4808 69.8794L66.1512 74.1677C64.3864 76.622 63.6765 79.5905 64.1592 82.4979C64.6419 85.4053 66.2827 88.0448 68.7639 89.9048C71.245 91.7649 74.3898 92.7131 77.5889 92.5657C80.788 92.4184 83.8136 91.1859 86.0796 89.1073C88.0576 87.2804 89.3266 84.9071 89.6912 82.3529C92.473 82.0181 95.0578 80.8529 97.0475 79.0367C99.3114 76.9561 100.654 74.1781 100.814 71.2407C100.975 68.3034 99.9419 65.4159 97.9161 63.1378C95.8904 60.8596 93.0157 59.353 89.8492 58.9098C86.6827 58.4666 83.4497 59.1184 80.7767 60.7389ZM29.2233 40.2611L33.9167 44.5494L48.5192 31.1417L43.8487 26.8323C45.6136 24.378 46.3235 21.4096 45.8408 18.5021C45.3581 15.5947 43.7172 12.9552 41.2361 11.0952C38.7549 9.23516 35.6102 8.28696 32.4111 8.43431C29.212 8.58166 26.1864 9.81407 23.9204 11.8928C21.9424 13.7196 20.6734 16.0929 20.3087 18.6471C17.5351 18.9863 14.9591 20.1512 12.9754 21.9633C10.7115 24.0439 9.36927 26.8219 9.20879 29.7593C9.0483 32.6966 10.081 35.5841 12.1068 37.8622C14.1326 40.1404 17.0072 41.647 20.1737 42.0902C23.3402 42.5334 26.5732 41.8816 29.2462 40.2611H29.2233Z" fill="#FA7070"/>
</svg>
