<svg width="525" height="525" viewBox="0 0 525 525" fill="none" xmlns="http://www.w3.org/2000/svg">
<path d="M330.85 310.795C322.625 296.445 324.575 279.01 334.409 266.866L290.85 305.258C282.628 312.503 281.837 325.043 289.083 333.265C293.005 337.716 298.477 339.988 303.978 339.988C308.638 339.988 313.319 338.356 317.09 335.032L336.299 318.103C334.229 315.906 332.384 313.471 330.85 310.795Z" fill="#FA7070"/>
<path d="M522.287 461.256L480.595 381.382L521.805 309.907C523.908 306.26 524.927 302.289 524.984 298.359L498.044 148.686C495.001 132.602 479.497 122.029 463.413 125.072C446.156 128.381 425.123 132.645 408.159 136.124C396.546 138.506 387.461 147.589 385.072 159.202L369.242 236.169L344.091 258.335C345.324 257.57 340.131 260.565 398.612 227.039L398.693 226.795L419.406 164.534L414.42 239.972C407.693 243.829 360.004 271.168 354.764 274.171C345.187 279.662 341.981 291.84 347.405 301.303C348.137 302.58 349.105 303.88 350.081 304.934C337.991 321.81 321.822 339.562 304.561 353.036C267.054 382.317 230.739 387.866 196.559 369.56C198.988 369.15 201.505 369.395 203.826 370.339C211.806 373.582 220.969 371.212 226.377 364.51L233.005 356.294C234.495 354.447 235.117 352.047 234.713 349.709C234.308 347.37 232.917 345.32 230.892 344.081L219.769 337.271C217.317 327.465 209.606 319.843 199.771 317.506L199.51 317.444C200.09 321.869 200.341 327.265 200.231 331.551C200.097 336.801 199.687 352.777 187.903 356.94C177.633 360.567 168.327 352.2 161.455 343.84C160.527 342.711 159.559 341.466 158.599 340.175C153.004 347.667 148.078 354.337 148.078 354.337L57.1859 367.782C46.9607 369.295 24.8483 378.22 17.7249 385.789C8.31186 395.791 2.13083 410.366 0.615305 423.449C-1.09812 435.929 0.734249 452.471 6.5728 466.733C7.29672 468.504 9.20087 469.565 11.1409 469.159C13.1671 468.737 14.78 466.803 14.2232 464.133C11.6505 451.799 12.1909 437.167 15.708 426.581C16.558 423.779 18.0469 420.038 20.0207 416.502C20.4822 421.199 21.1794 425.652 22.7801 430.75C29.2144 444.067 37.6143 452.748 51.6847 457.037C57.716 468.155 54.7578 462.701 69.7428 490.322C72.6785 495.733 79.4429 497.739 84.8518 494.803C90.2618 491.868 92.2685 485.103 89.3328 479.694C85.5963 472.808 84.4366 470.67 74.9958 453.269C80.4673 442.707 78.5375 422.278 74.3447 416.008C70.8861 410.834 67.411 405.63 62.6061 401.759C60.0324 399.684 59.6263 395.916 61.6996 393.342C63.8335 390.695 67.6633 390.461 70.116 392.436C82.5786 402.474 89.5225 416.234 90.2813 429.477C112.484 432.31 135.156 435.061 148.416 436.55L177.59 490.322C180.526 495.733 187.29 497.739 192.699 494.803C198.109 491.868 200.116 485.103 197.18 479.694L167.741 425.434C173.589 413.831 179.927 396.496 184.417 383.341C201.314 393.151 218.857 398.037 236.718 398.037C262.685 398.037 289.323 387.712 315.611 367.19C335.967 351.298 355.125 329.743 367.716 311.047C370.066 310.681 372.269 309.963 374.538 308.662C381.84 304.476 436.138 273.349 443.44 269.163C449.201 265.859 452.948 259.886 453.389 253.228L458.893 169.924L472.214 250.101C473.689 258.975 469.001 276.507 452.931 285.721C441.724 292.145 405.789 312.746 394.599 319.161L377.866 340.634C373.579 346.136 371.915 353.239 373.313 360.072L397.215 477.072C399.854 489.983 412.456 498.306 425.362 495.669C438.27 493.032 446.596 480.431 443.96 467.523L422.256 361.291L462.011 310.272L467.081 309.313L432.725 368.899C428.651 375.965 428.469 384.621 432.244 391.853L479.995 483.335C486.094 495.015 500.504 499.54 512.182 493.444C523.858 487.346 528.384 472.935 522.287 461.256Z" fill="#FA7070"/>
<path d="M418.878 116.602C443.111 116.602 462.756 96.9568 462.756 72.7235C462.756 48.4901 443.111 28.8451 418.878 28.8451C394.644 28.8451 374.999 48.4901 374.999 72.7235C374.999 96.9568 394.644 116.602 418.878 116.602Z" fill="#FA7070"/>
<path d="M188.071 314.878C186.731 311.084 179.266 308.995 171.89 311.601C164.512 314.207 160.017 320.521 161.357 324.314C162.698 328.106 176.941 349.386 184.316 346.781C191.694 344.174 189.41 318.67 188.071 314.878Z" fill="#FA7070"/>
</svg>
