<svg width="78" height="78" viewBox="0 0 78 78" fill="none" xmlns="http://www.w3.org/2000/svg">
<path d="M65 39.1624C64.9393 34.2078 63.4638 29.3737 60.7474 25.2295C58.0311 21.0853 54.1873 17.8036 49.6685 15.7708C45.1494 13.738 40.1437 13.0389 35.2408 13.7557C30.3379 14.4725 25.7419 16.5754 21.9941 19.8168C18.2463 23.0581 15.5027 27.3029 14.0865 32.0513C12.6704 36.7997 12.6405 41.8538 14.0006 46.6186C15.3606 51.3834 18.0539 55.6601 21.7632 58.9455C25.4725 62.2309 30.0434 64.388 34.9375 65.1624V46.7349H28.4376V39.1624H34.9375V33.4099C34.7871 32.0724 34.932 30.7181 35.3623 29.4427C35.7926 28.1673 36.4975 27.0018 37.4274 26.0286C38.3572 25.0554 39.4892 24.2981 40.7437 23.8102C41.9982 23.3223 43.3446 23.1157 44.6875 23.205C46.6369 23.2317 48.5817 23.4056 50.505 23.725V30.225H47.255C46.6947 30.1544 46.1253 30.2105 45.5897 30.3894C45.0538 30.5682 44.565 30.8652 44.1594 31.2583C43.7538 31.6514 43.4418 32.1307 43.2465 32.6605C43.0508 33.1906 42.9771 33.7577 43.03 34.32V39.2274H50.245L49.075 46.7999H43.0625V64.9999C49.2047 64.0285 54.7954 60.8877 58.8202 56.1473C62.845 51.4068 65.0374 45.381 65 39.1624Z" fill="#FA7070"/>
</svg>
