<svg width="62" height="62" viewBox="0 0 62 62" fill="none" xmlns="http://www.w3.org/2000/svg">
<path fill-rule="evenodd" clip-rule="evenodd" d="M31 46.5C39.5604 46.5 46.5 39.5604 46.5 31C46.5 22.4396 39.5604 15.5 31 15.5C22.4396 15.5 15.5 22.4396 15.5 31C15.5 39.5604 22.4396 46.5 31 46.5ZM31 41.3333C36.7068 41.3333 41.3333 36.7068 41.3333 31C41.3333 25.2931 36.7068 20.6667 31 20.6667C25.2931 20.6667 20.6667 25.2931 20.6667 31C20.6667 36.7068 25.2931 41.3333 31 41.3333Z" fill="#FA7070"/>
<path d="M46.5 12.9166C45.0732 12.9166 43.9167 14.0732 43.9167 15.5C43.9167 16.9267 45.0732 18.0833 46.5 18.0833C47.9268 18.0833 49.0834 16.9267 49.0834 15.5C49.0834 14.0732 47.9268 12.9166 46.5 12.9166Z" fill="#FA7070"/>
<path fill-rule="evenodd" clip-rule="evenodd" d="M4.27271 11.0465C2.58331 14.3622 2.58331 18.7026 2.58331 27.3834V34.6167C2.58331 43.2975 2.58331 47.638 4.27271 50.9534C5.75875 53.87 8.12994 56.2413 11.0465 57.7272C14.3621 59.4167 18.7025 59.4167 27.3833 59.4167H34.6166C43.2974 59.4167 47.6379 59.4167 50.9534 57.7272C53.87 56.2413 56.2412 53.87 57.7271 50.9534C59.4166 47.638 59.4166 43.2975 59.4166 34.6167V27.3834C59.4166 18.7026 59.4166 14.3622 57.7271 11.0465C56.2412 8.13 53.87 5.75881 50.9534 4.27277C47.6379 2.58337 43.2974 2.58337 34.6166 2.58337H27.3833C18.7025 2.58337 14.3621 2.58337 11.0465 4.27277C8.12994 5.75881 5.75875 8.13 4.27271 11.0465ZM34.6166 7.75004H27.3833C22.9576 7.75004 19.9491 7.75407 17.6237 7.94405C15.3585 8.12912 14.2001 8.46456 13.3921 8.8763C11.4477 9.867 9.86694 11.4478 8.87624 13.3921C8.4645 14.2002 8.12906 15.3586 7.94399 17.6237C7.75401 19.9492 7.74998 22.9577 7.74998 27.3834V34.6167C7.74998 39.0425 7.75401 42.0508 7.94399 44.3763C8.12906 46.6416 8.4645 47.8 8.87624 48.608C9.86694 50.5523 11.4477 52.133 13.3921 53.1237C14.2001 53.5355 15.3585 53.8711 17.6237 54.056C19.9491 54.2459 22.9576 54.25 27.3833 54.25H34.6166C39.0424 54.25 42.0507 54.2459 44.3762 54.056C46.6415 53.8711 47.7999 53.5355 48.608 53.1237C50.5522 52.133 52.1329 50.5523 53.1236 48.608C53.5354 47.8 53.871 46.6416 54.056 44.3763C54.2458 42.0508 54.25 39.0425 54.25 34.6167V27.3834C54.25 22.9577 54.2458 19.9492 54.056 17.6237C53.871 15.3586 53.5354 14.2002 53.1236 13.3921C52.1329 11.4478 50.5522 9.867 48.608 8.8763C47.7999 8.46456 46.6415 8.12912 44.3762 7.94405C42.0507 7.75407 39.0424 7.75004 34.6166 7.75004Z" fill="#FA7070"/>
</svg>
