<svg width="345" height="66" viewBox="0 0 345 66" fill="none" xmlns="http://www.w3.org/2000/svg">
<path d="M90.5585 21.2077H99.3766C102.385 21.2077 104.619 21.9136 106.077 23.3254C107.535 24.7141 108.264 26.8781 108.264 29.8175V36.8997C108.264 39.839 107.535 42.0146 106.077 43.4264C104.619 44.8151 102.385 45.5094 99.3766 45.5094H90.5585V41.1004H92.8498V25.582H90.5585V21.2077ZM99.3766 41.1351C100.974 41.1351 102.084 40.7648 102.709 40.0242C103.357 39.2604 103.681 38.08 103.681 36.4831V29.8175C103.681 28.4288 103.357 27.3757 102.709 26.6582C102.084 25.9408 100.974 25.582 99.3766 25.582H97.4324V41.1351H99.3766ZM129.799 37.108C129.799 38.5429 129.556 39.8159 129.07 40.9268C128.584 42.0146 127.924 42.9404 127.091 43.7041C126.258 44.4448 125.297 45.0118 124.21 45.4052C123.145 45.7987 122.022 45.9954 120.842 45.9954C119.662 45.9954 118.528 45.7987 117.44 45.4052C116.375 45.0118 115.426 44.4448 114.593 43.7041C113.76 42.9404 113.1 42.0146 112.614 40.9268C112.128 39.8159 111.885 38.5429 111.885 37.108V36.6914C111.885 35.2795 112.128 34.0297 112.614 32.942C113.1 31.831 113.76 30.8937 114.593 30.1299C115.426 29.3661 116.375 28.7875 117.44 28.3941C118.528 28.0006 119.662 27.8039 120.842 27.8039C122.022 27.8039 123.145 28.0006 124.21 28.3941C125.297 28.7875 126.258 29.3661 127.091 30.1299C127.924 30.8937 128.584 31.831 129.07 32.942C129.556 34.0297 129.799 35.2795 129.799 36.6914V37.108ZM120.842 41.8294C121.467 41.8294 122.057 41.7253 122.613 41.517C123.168 41.3087 123.654 41.0078 124.071 40.6143C124.487 40.2209 124.811 39.7464 125.043 39.191C125.297 38.6123 125.425 37.9643 125.425 37.2468V36.5525C125.425 35.835 125.297 35.1985 125.043 34.6431C124.811 34.0645 124.487 33.5784 124.071 33.185C123.654 32.7915 123.168 32.4906 122.613 32.2823C122.057 32.074 121.467 31.9699 120.842 31.9699C120.217 31.9699 119.627 32.074 119.072 32.2823C118.516 32.4906 118.03 32.7915 117.613 33.185C117.197 33.5784 116.861 34.0645 116.607 34.6431C116.375 35.1985 116.259 35.835 116.259 36.5525V37.2468C116.259 37.9643 116.375 38.6123 116.607 39.191C116.861 39.7464 117.197 40.2209 117.613 40.6143C118.03 41.0078 118.516 41.3087 119.072 41.517C119.627 41.7253 120.217 41.8294 120.842 41.8294ZM146.474 43.0098H145.849C145.663 43.4033 145.432 43.7851 145.154 44.1554C144.9 44.5026 144.553 44.8151 144.113 45.0928C143.696 45.3705 143.187 45.5904 142.585 45.7524C142.007 45.9144 141.301 45.9954 140.468 45.9954C139.403 45.9954 138.408 45.8103 137.482 45.44C136.579 45.0465 135.781 44.4795 135.086 43.7388C134.415 42.9751 133.883 42.0493 133.49 40.9615C133.119 39.8737 132.934 38.6239 132.934 37.2121V36.5872C132.934 35.1985 133.131 33.9603 133.524 32.8725C133.941 31.7847 134.496 30.8705 135.191 30.1299C135.908 29.3661 136.73 28.7875 137.656 28.3941C138.604 28.0006 139.6 27.8039 140.641 27.8039C142.03 27.8039 143.129 28.07 143.939 28.6024C144.749 29.1115 145.386 29.8406 145.849 30.7895H146.474V28.2899H150.848V49.7448C150.848 50.5317 150.593 51.1798 150.084 51.689C149.598 52.1981 148.962 52.4527 148.175 52.4527H136.579V48.2867H145.536C146.161 48.2867 146.474 47.9396 146.474 47.2452V43.0098ZM141.891 41.8294C143.256 41.8294 144.356 41.4013 145.189 40.5449C146.045 39.6654 146.474 38.5198 146.474 37.108V36.6914C146.474 35.2795 146.045 34.1455 145.189 33.2891C144.356 32.4096 143.256 31.9699 141.891 31.9699C140.525 31.9699 139.414 32.3981 138.558 33.2544C137.725 34.0876 137.308 35.2333 137.308 36.6914V37.108C137.308 38.5661 137.725 39.7233 138.558 40.5796C139.414 41.4128 140.525 41.8294 141.891 41.8294ZM175.865 21.2077H193.362V25.582H186.905V45.5094H182.322V25.582H175.865V21.2077ZM197.122 28.2899H204.413V30.7895H205.038C205.362 29.8406 205.906 29.1115 206.669 28.6024C207.456 28.07 208.394 27.8039 209.481 27.8039C211.194 27.8039 212.571 28.3478 213.613 29.4356C214.654 30.5002 215.175 32.1319 215.175 34.3306V35.0944L210.662 35.511V35.025C210.662 34.076 210.419 33.3238 209.933 32.7684C209.447 32.1898 208.718 31.9005 207.746 31.9005C206.773 31.9005 206.01 32.236 205.454 32.9072C204.899 33.5784 204.621 34.5389 204.621 35.7887V41.3434H208.579V45.5094H196.706V41.3434H200.247V32.4559H197.122V28.2899ZM230.357 43.0098C229.894 44.0976 229.246 44.8729 228.413 45.3358C227.579 45.7756 226.607 45.9954 225.496 45.9954C224.455 45.9954 223.471 45.7987 222.545 45.4052C221.643 45.0118 220.844 44.4332 220.15 43.6694C219.456 42.9056 218.9 41.9799 218.484 40.8921C218.09 39.8043 217.893 38.5661 217.893 37.1774V36.6219C217.893 35.2564 218.09 34.0297 218.484 32.942C218.877 31.8542 219.409 30.9284 220.081 30.1646C220.752 29.4009 221.527 28.8222 222.407 28.4288C223.309 28.0122 224.27 27.8039 225.288 27.8039C226.515 27.8039 227.498 28.0122 228.239 28.4288C229.003 28.8454 229.604 29.4934 230.044 30.3729H230.669V28.2899H235.043V40.3019C235.043 40.9962 235.356 41.3434 235.981 41.3434H236.64V45.5094H233.655C232.868 45.5094 232.22 45.278 231.711 44.8151C231.225 44.3522 230.982 43.7504 230.982 43.0098H230.357ZM226.468 41.8294C227.741 41.8294 228.76 41.4128 229.523 40.5796C230.287 39.7233 230.669 38.5661 230.669 37.108V36.6914C230.669 35.2333 230.287 34.0876 229.523 33.2544C228.76 32.3981 227.741 31.9699 226.468 31.9699C225.195 31.9699 224.177 32.3981 223.413 33.2544C222.65 34.0876 222.268 35.2333 222.268 36.6914V37.108C222.268 38.5661 222.65 39.7233 223.413 40.5796C224.177 41.4128 225.195 41.8294 226.468 41.8294ZM240.782 41.3434H246.615V32.4559H241.199V28.2899H250.989V41.3434H255.988V45.5094H240.782V41.3434ZM252.065 23.1866C252.065 23.6495 251.973 24.0892 251.787 24.5058C251.625 24.8993 251.394 25.2464 251.093 25.5473C250.792 25.825 250.434 26.0565 250.017 26.2416C249.623 26.4036 249.207 26.4846 248.767 26.4846C248.304 26.4846 247.876 26.4036 247.483 26.2416C247.089 26.0565 246.742 25.825 246.441 25.5473C246.14 25.2464 245.897 24.8993 245.712 24.5058C245.55 24.0892 245.469 23.6495 245.469 23.1866C245.469 22.7237 245.55 22.2955 245.712 21.902C245.897 21.4854 246.14 21.1383 246.441 20.8605C246.742 20.5597 247.089 20.3282 247.483 20.1662C247.876 19.9811 248.304 19.8885 248.767 19.8885C249.207 19.8885 249.623 19.9811 250.017 20.1662C250.434 20.3282 250.792 20.5597 251.093 20.8605C251.394 21.1383 251.625 21.4854 251.787 21.902C251.973 22.2955 252.065 22.7237 252.065 23.1866ZM266.101 45.5094H261.727V28.2899H266.101V30.859H266.726C267.12 29.8869 267.756 29.1347 268.636 28.6024C269.515 28.07 270.545 27.8039 271.725 27.8039C272.559 27.8039 273.334 27.9427 274.051 28.2205C274.792 28.4751 275.44 28.8801 275.996 29.4356C276.551 29.991 276.979 30.6969 277.28 31.5533C277.604 32.4096 277.766 33.428 277.766 34.6084V45.5094H273.392V35.7193C273.392 34.4926 273.091 33.5321 272.489 32.8378C271.911 32.1203 271.066 31.7616 269.955 31.7616C268.659 31.7616 267.687 32.2013 267.039 33.0808C266.414 33.9372 266.101 35.0944 266.101 36.5525V45.5094ZM283.297 41.3434H289.129V32.4559H283.713V28.2899H293.503V41.3434H298.503V45.5094H283.297V41.3434ZM294.58 23.1866C294.58 23.6495 294.487 24.0892 294.302 24.5058C294.14 24.8993 293.908 25.2464 293.608 25.5473C293.307 25.825 292.948 26.0565 292.531 26.2416C292.138 26.4036 291.721 26.4846 291.282 26.4846C290.819 26.4846 290.39 26.4036 289.997 26.2416C289.604 26.0565 289.256 25.825 288.955 25.5473C288.655 25.2464 288.412 24.8993 288.226 24.5058C288.064 24.0892 287.983 23.6495 287.983 23.1866C287.983 22.7237 288.064 22.2955 288.226 21.902C288.412 21.4854 288.655 21.1383 288.955 20.8605C289.256 20.5597 289.604 20.3282 289.997 20.1662C290.39 19.9811 290.819 19.8885 291.282 19.8885C291.721 19.8885 292.138 19.9811 292.531 20.1662C292.948 20.3282 293.307 20.5597 293.608 20.8605C293.908 21.1383 294.14 21.4854 294.302 21.902C294.487 22.2955 294.58 22.7237 294.58 23.1866ZM308.616 45.5094H304.241V28.2899H308.616V30.859H309.241C309.634 29.8869 310.271 29.1347 311.15 28.6024C312.03 28.07 313.059 27.8039 314.24 27.8039C315.073 27.8039 315.848 27.9427 316.566 28.2205C317.306 28.4751 317.955 28.8801 318.51 29.4356C319.065 29.991 319.494 30.6969 319.794 31.5533C320.119 32.4096 320.281 33.428 320.281 34.6084V45.5094H315.906V35.7193C315.906 34.4926 315.605 33.5321 315.004 32.8378C314.425 32.1203 313.58 31.7616 312.469 31.7616C311.173 31.7616 310.201 32.2013 309.553 33.0808C308.928 33.9372 308.616 35.0944 308.616 36.5525V45.5094ZM337.788 43.0098H337.163C336.978 43.4033 336.747 43.7851 336.469 44.1554C336.215 44.5026 335.867 44.8151 335.428 45.0928C335.011 45.3705 334.502 45.5904 333.9 45.7524C333.321 45.9144 332.616 45.9954 331.782 45.9954C330.718 45.9954 329.722 45.8103 328.797 45.44C327.894 45.0465 327.096 44.4795 326.401 43.7388C325.73 42.9751 325.198 42.0493 324.804 40.9615C324.434 39.8737 324.249 38.6239 324.249 37.2121V36.5872C324.249 35.1985 324.446 33.9603 324.839 32.8725C325.256 31.7847 325.811 30.8705 326.505 30.1299C327.223 29.3661 328.045 28.7875 328.97 28.3941C329.919 28.0006 330.914 27.8039 331.956 27.8039C333.345 27.8039 334.444 28.07 335.254 28.6024C336.064 29.1115 336.701 29.8406 337.163 30.7895H337.788V28.2899H342.163V49.7448C342.163 50.5317 341.908 51.1798 341.399 51.689C340.913 52.1981 340.276 52.4527 339.489 52.4527H327.894V48.2867H336.851C337.476 48.2867 337.788 47.9396 337.788 47.2452V43.0098ZM333.206 41.8294C334.571 41.8294 335.671 41.4013 336.504 40.5449C337.36 39.6654 337.788 38.5198 337.788 37.108V36.6914C337.788 35.2795 337.36 34.1455 336.504 33.2891C335.671 32.4096 334.571 31.9699 333.206 31.9699C331.84 31.9699 330.729 32.3981 329.873 33.2544C329.04 34.0876 328.623 35.2333 328.623 36.6914V37.108C328.623 38.5661 329.04 39.7233 329.873 40.5796C330.729 41.4128 331.84 41.8294 333.206 41.8294Z" fill="black"/>
<g clip-path="url(#clip0_6_92)">
<path d="M61.6601 13.5472C56.2965 10.7919 49.4272 8.39217 43.1638 5.69853C42.9592 5.60916 42.8162 5.54749 42.7367 5.55754C39.8444 4.4451 36.7137 3.84514 33.4538 3.84717C31.795 3.84717 30.2277 3.93464 28.7417 4.10348C25.2374 4.50282 22.1843 5.37688 19.56 6.69388C13.9761 8.99797 8.12782 11.1355 3.4337 13.5472C0.13807 15.2396 -0.165913 18.4021 0.0565759 19.747C0.652591 23.3625 3.12374 32.842 3.63228 34.7292C4.06531 36.3403 5.8512 37.5481 8.00654 37.8341C9.23022 44.3837 12.351 50.1544 16.7412 54.346C18.984 56.4835 21.5604 58.2098 24.3813 59.4017C27.2002 60.5936 30.2653 61.2491 33.4536 61.2472C37.085 61.2492 40.5553 60.3969 43.6881 58.8733C48.3901 56.5849 52.3354 52.7966 55.1046 48.0826C56.9937 44.8685 58.3387 41.2152 59.0041 37.2958C60.2437 36.7357 61.1674 35.8258 61.4614 34.7292C61.9699 32.842 64.4412 23.3625 65.0371 19.747C65.2597 18.4021 64.9557 15.2396 61.6601 13.5472ZM48.6604 49.5982C46.6838 51.8708 44.3457 53.6924 41.7752 54.9419C39.2046 56.1934 36.4057 56.8768 33.4538 56.8768C30.8634 56.8768 28.3881 56.3484 26.0819 55.3749C23.7775 54.4015 21.642 52.9791 19.7569 51.1833H19.7589C19.2186 50.6708 18.704 50.1225 18.2094 49.5485C18.2213 49.5604 18.2352 49.5743 18.2491 49.5863C29.3298 43.8849 38.9963 32.9374 38.297 20.5773C37.9553 14.58 35.2895 10.7222 32.109 8.24113C32.5501 8.22727 32.9951 8.21723 33.4539 8.21723C36.4554 8.21926 39.2943 8.81324 41.8727 9.91564C42.9057 10.3567 43.895 10.8811 44.8386 11.4811C45.6412 13.6702 46.6742 16.6241 47.9534 20.607C46.1496 32.1368 50.2935 36.7911 54.4712 37.7168C53.4936 42.3137 51.4396 46.4039 48.6604 49.5982Z" fill="black"/>
<path d="M33.9266 42.9832C30.6906 42.9832 28.0664 45.1166 28.0664 47.7508C28.0664 50.3849 30.6906 52.5184 33.9266 52.5184C37.1626 52.5184 39.7868 50.3849 39.7868 47.7508C39.7868 45.1166 37.1626 42.9832 33.9266 42.9832Z" fill="black"/>
</g>
<defs>
<clipPath id="clip0_6_92">
<rect width="65.0938" height="65.0938" fill="white"/>
</clipPath>
</defs>
</svg>
