<svg width="318" height="60" viewBox="0 0 318 60" fill="none" xmlns="http://www.w3.org/2000/svg">
<path d="M83.472 19.6H91.6C94.3733 19.6 96.432 20.2507 97.776 21.552C99.12 22.832 99.792 24.8267 99.792 27.536V34.064C99.792 36.7733 99.12 38.7787 97.776 40.08C96.432 41.36 94.3733 42 91.6 42H83.472V37.936H85.584V23.632H83.472V19.6ZM91.6 37.968C93.072 37.968 94.096 37.6267 94.672 36.944C95.2693 36.24 95.568 35.152 95.568 33.68V27.536C95.568 26.256 95.2693 25.2853 94.672 24.624C94.096 23.9627 93.072 23.632 91.6 23.632H89.808V37.968H91.6ZM119.642 34.256C119.642 35.5787 119.418 36.752 118.97 37.776C118.522 38.7787 117.914 39.632 117.146 40.336C116.378 41.0187 115.492 41.5413 114.49 41.904C113.508 42.2667 112.474 42.448 111.386 42.448C110.298 42.448 109.252 42.2667 108.25 41.904C107.268 41.5413 106.394 41.0187 105.626 40.336C104.858 39.632 104.25 38.7787 103.802 37.776C103.354 36.752 103.13 35.5787 103.13 34.256V33.872C103.13 32.5707 103.354 31.4187 103.802 30.416C104.25 29.392 104.858 28.528 105.626 27.824C106.394 27.12 107.268 26.5867 108.25 26.224C109.252 25.8613 110.298 25.68 111.386 25.68C112.474 25.68 113.508 25.8613 114.49 26.224C115.492 26.5867 116.378 27.12 117.146 27.824C117.914 28.528 118.522 29.392 118.97 30.416C119.418 31.4187 119.642 32.5707 119.642 33.872V34.256ZM111.386 38.608C111.962 38.608 112.506 38.512 113.018 38.32C113.53 38.128 113.978 37.8507 114.362 37.488C114.746 37.1253 115.044 36.688 115.258 36.176C115.492 35.6427 115.61 35.0453 115.61 34.384V33.744C115.61 33.0827 115.492 32.496 115.258 31.984C115.044 31.4507 114.746 31.0027 114.362 30.64C113.978 30.2773 113.53 30 113.018 29.808C112.506 29.616 111.962 29.52 111.386 29.52C110.81 29.52 110.266 29.616 109.754 29.808C109.242 30 108.794 30.2773 108.41 30.64C108.026 31.0027 107.716 31.4507 107.482 31.984C107.268 32.496 107.162 33.0827 107.162 33.744V34.384C107.162 35.0453 107.268 35.6427 107.482 36.176C107.716 36.688 108.026 37.1253 108.41 37.488C108.794 37.8507 109.242 38.128 109.754 38.32C110.266 38.512 110.81 38.608 111.386 38.608ZM135.012 39.696H134.436C134.265 40.0587 134.052 40.4107 133.796 40.752C133.561 41.072 133.241 41.36 132.836 41.616C132.452 41.872 131.982 42.0747 131.428 42.224C130.894 42.3733 130.244 42.448 129.476 42.448C128.494 42.448 127.577 42.2773 126.724 41.936C125.892 41.5733 125.156 41.0507 124.516 40.368C123.897 39.664 123.406 38.8107 123.044 37.808C122.702 36.8053 122.532 35.6533 122.532 34.352V33.776C122.532 32.496 122.713 31.3547 123.076 30.352C123.46 29.3493 123.972 28.5067 124.612 27.824C125.273 27.12 126.03 26.5867 126.884 26.224C127.758 25.8613 128.676 25.68 129.635 25.68C130.916 25.68 131.929 25.9253 132.676 26.416C133.422 26.8853 134.009 27.5573 134.436 28.432H135.012V26.128H139.044V45.904C139.044 46.6293 138.809 47.2267 138.34 47.696C137.892 48.1653 137.305 48.4 136.58 48.4H125.891V44.56H134.148C134.724 44.56 135.012 44.24 135.012 43.6V39.696ZM130.788 38.608C132.046 38.608 133.06 38.2133 133.828 37.424C134.617 36.6133 135.012 35.5573 135.012 34.256V33.872C135.012 32.5707 134.617 31.5253 133.828 30.736C133.06 29.9253 132.046 29.52 130.788 29.52C129.529 29.52 128.505 29.9147 127.716 30.704C126.948 31.472 126.564 32.528 126.564 33.872V34.256C126.564 35.6 126.948 36.6667 127.716 37.456C128.505 38.224 129.529 38.608 130.788 38.608ZM162.103 19.6H178.231V23.632H172.279V42H168.055V23.632H162.103V19.6ZM181.697 26.128H188.417V28.432H188.993C189.291 27.5573 189.793 26.8853 190.497 26.416C191.222 25.9253 192.086 25.68 193.089 25.68C194.667 25.68 195.937 26.1813 196.897 27.184C197.857 28.1653 198.337 29.6693 198.337 31.696V32.4L194.177 32.784V32.336C194.177 31.4613 193.953 30.768 193.505 30.256C193.057 29.7227 192.385 29.456 191.489 29.456C190.593 29.456 189.889 29.7653 189.377 30.384C188.865 31.0027 188.609 31.888 188.609 33.04V38.16H192.257V42H181.313V38.16H184.577V29.968H181.697V26.128ZM212.331 39.696C211.904 40.6987 211.307 41.4133 210.539 41.84C209.771 42.2453 208.875 42.448 207.851 42.448C206.891 42.448 205.984 42.2667 205.131 41.904C204.299 41.5413 203.563 41.008 202.923 40.304C202.283 39.6 201.771 38.7467 201.387 37.744C201.024 36.7413 200.843 35.6 200.843 34.32V33.808C200.843 32.5493 201.024 31.4187 201.387 30.416C201.749 29.4133 202.24 28.56 202.859 27.856C203.477 27.152 204.192 26.6187 205.003 26.256C205.835 25.872 206.72 25.68 207.659 25.68C208.789 25.68 209.696 25.872 210.379 26.256C211.083 26.64 211.637 27.2373 212.043 28.048H212.619V26.128H216.651V37.2C216.651 37.84 216.939 38.16 217.515 38.16H218.123V42H215.371C214.645 42 214.048 41.7867 213.579 41.36C213.131 40.9333 212.907 40.3787 212.907 39.696H212.331ZM208.747 38.608C209.92 38.608 210.859 38.224 211.563 37.456C212.267 36.6667 212.619 35.6 212.619 34.256V33.872C212.619 32.528 212.267 31.472 211.563 30.704C210.859 29.9147 209.92 29.52 208.747 29.52C207.573 29.52 206.635 29.9147 205.931 30.704C205.227 31.472 204.875 32.528 204.875 33.872V34.256C204.875 35.6 205.227 36.6667 205.931 37.456C206.635 38.224 207.573 38.608 208.747 38.608ZM221.94 38.16H227.316V29.968H222.324V26.128H231.348V38.16H235.956V42H221.94V38.16ZM232.34 21.424C232.34 21.8507 232.255 22.256 232.084 22.64C231.935 23.0027 231.722 23.3227 231.444 23.6C231.167 23.856 230.836 24.0693 230.452 24.24C230.09 24.3893 229.706 24.464 229.3 24.464C228.874 24.464 228.479 24.3893 228.116 24.24C227.754 24.0693 227.434 23.856 227.156 23.6C226.879 23.3227 226.655 23.0027 226.484 22.64C226.335 22.256 226.26 21.8507 226.26 21.424C226.26 20.9973 226.335 20.6027 226.484 20.24C226.655 19.856 226.879 19.536 227.156 19.28C227.434 19.0027 227.754 18.7893 228.116 18.64C228.479 18.4693 228.874 18.384 229.3 18.384C229.706 18.384 230.09 18.4693 230.452 18.64C230.836 18.7893 231.167 19.0027 231.444 19.28C231.722 19.536 231.935 19.856 232.084 20.24C232.255 20.6027 232.34 20.9973 232.34 21.424ZM245.278 42H241.246V26.128H245.278V28.496H245.854C246.217 27.6 246.803 26.9067 247.614 26.416C248.425 25.9253 249.374 25.68 250.462 25.68C251.23 25.68 251.945 25.808 252.606 26.064C253.289 26.2987 253.886 26.672 254.398 27.184C254.91 27.696 255.305 28.3467 255.582 29.136C255.881 29.9253 256.03 30.864 256.03 31.952V42H251.998V32.976C251.998 31.8453 251.721 30.96 251.166 30.32C250.633 29.6587 249.854 29.328 248.83 29.328C247.635 29.328 246.739 29.7333 246.142 30.544C245.566 31.3333 245.278 32.4 245.278 33.744V42ZM261.128 38.16H266.504V29.968H261.512V26.128H270.536V38.16H275.144V42H261.128V38.16ZM271.528 21.424C271.528 21.8507 271.442 22.256 271.272 22.64C271.122 23.0027 270.909 23.3227 270.632 23.6C270.354 23.856 270.024 24.0693 269.64 24.24C269.277 24.3893 268.893 24.464 268.488 24.464C268.061 24.464 267.666 24.3893 267.304 24.24C266.941 24.0693 266.621 23.856 266.344 23.6C266.066 23.3227 265.842 23.0027 265.672 22.64C265.522 22.256 265.448 21.8507 265.448 21.424C265.448 20.9973 265.522 20.6027 265.672 20.24C265.842 19.856 266.066 19.536 266.344 19.28C266.621 19.0027 266.941 18.7893 267.304 18.64C267.666 18.4693 268.061 18.384 268.488 18.384C268.893 18.384 269.277 18.4693 269.64 18.64C270.024 18.7893 270.354 19.0027 270.632 19.28C270.909 19.536 271.122 19.856 271.272 20.24C271.442 20.6027 271.528 20.9973 271.528 21.424ZM284.466 42H280.434V26.128H284.466V28.496H285.042C285.404 27.6 285.991 26.9067 286.802 26.416C287.612 25.9253 288.562 25.68 289.65 25.68C290.418 25.68 291.132 25.808 291.794 26.064C292.476 26.2987 293.074 26.672 293.586 27.184C294.098 27.696 294.492 28.3467 294.77 29.136C295.068 29.9253 295.218 30.864 295.218 31.952V42H291.186V32.976C291.186 31.8453 290.908 30.96 290.354 30.32C289.82 29.6587 289.042 29.328 288.018 29.328C286.823 29.328 285.927 29.7333 285.33 30.544C284.754 31.3333 284.466 32.4 284.466 33.744V42ZM311.355 39.696H310.779C310.609 40.0587 310.395 40.4107 310.139 40.752C309.905 41.072 309.585 41.36 309.179 41.616C308.795 41.872 308.326 42.0747 307.771 42.224C307.238 42.3733 306.587 42.448 305.819 42.448C304.838 42.448 303.921 42.2773 303.067 41.936C302.235 41.5733 301.499 41.0507 300.859 40.368C300.241 39.664 299.75 38.8107 299.387 37.808C299.046 36.8053 298.875 35.6533 298.875 34.352V33.776C298.875 32.496 299.057 31.3547 299.419 30.352C299.803 29.3493 300.315 28.5067 300.955 27.824C301.617 27.12 302.374 26.5867 303.227 26.224C304.102 25.8613 305.019 25.68 305.979 25.68C307.259 25.68 308.273 25.9253 309.019 26.416C309.766 26.8853 310.353 27.5573 310.779 28.432H311.355V26.128H315.387V45.904C315.387 46.6293 315.153 47.2267 314.683 47.696C314.235 48.1653 313.649 48.4 312.923 48.4H302.235V44.56H310.491C311.067 44.56 311.355 44.24 311.355 43.6V39.696ZM307.131 38.608C308.39 38.608 309.403 38.2133 310.171 37.424C310.961 36.6133 311.355 35.5573 311.355 34.256V33.872C311.355 32.5707 310.961 31.5253 310.171 30.736C309.403 29.9253 308.39 29.52 307.131 29.52C305.873 29.52 304.849 29.9147 304.059 30.704C303.291 31.472 302.907 32.528 302.907 33.872V34.256C302.907 35.6 303.291 36.6667 304.059 37.456C304.849 38.224 305.873 38.608 307.131 38.608Z" fill="#A1C398"/>
<path d="M56.835 12.4869C51.8911 9.94721 45.5593 7.7353 39.7861 5.25245C39.5975 5.17007 39.4657 5.11323 39.3925 5.12249C36.7264 4.0971 33.8407 3.54409 30.8359 3.54596C29.307 3.54596 27.8623 3.62659 26.4926 3.78221C23.2625 4.1503 20.4483 4.95596 18.0294 6.16991C12.8824 8.2937 7.4918 10.264 3.165 12.4869C0.127266 14.0469 -0.152929 16.9619 0.0521487 18.2016C0.601524 21.5341 2.8793 30.2719 3.34805 32.0114C3.74719 33.4964 5.39332 34.6097 7.38 34.8733C8.50793 40.9104 11.3845 46.2295 15.4311 50.0931C17.4984 52.0633 19.8732 53.6545 22.4734 54.7532C25.0717 55.8518 27.897 56.456 30.8358 56.4542C34.183 56.4561 37.3818 55.6705 40.2694 54.2661C44.6034 52.1567 48.24 48.6649 50.7925 44.3198C52.5337 41.3572 53.7735 37.9898 54.3868 34.3772C55.5294 33.8608 56.3809 33.0221 56.6518 32.0114C57.1206 30.2719 59.3985 21.5341 59.9477 18.2016C60.1529 16.9619 59.8727 14.0469 56.835 12.4869ZM44.8526 45.7168C43.0307 47.8116 40.8755 49.4906 38.5062 50.6423C36.1368 51.7959 33.5569 52.4258 30.8359 52.4258C28.4482 52.4258 26.1667 51.9388 24.0409 51.0415C21.9169 50.1443 19.9485 48.8332 18.2108 47.1779H18.2127C17.7146 46.7055 17.2404 46.2001 16.7844 45.671C16.7954 45.682 16.8082 45.6948 16.8211 45.7058C27.0347 40.4507 35.9447 30.3598 35.3002 18.9669C34.9852 13.4389 32.528 9.883 29.5964 7.59608C30.0029 7.58331 30.4131 7.57405 30.836 7.57405C33.6027 7.57593 36.2194 8.12342 38.5961 9.13956C39.5482 9.54608 40.46 10.0295 41.3298 10.5825C42.0696 12.6003 43.0218 15.3231 44.2009 18.9943C42.5382 29.6218 46.3578 33.9119 50.2086 34.7652C49.3076 39.0023 47.4143 42.7725 44.8526 45.7168Z" fill="#FA7070"/>
<path d="M31.2717 39.6194C28.2889 39.6194 25.8701 41.586 25.8701 44.014C25.8701 46.442 28.2889 48.4085 31.2717 48.4085C34.2545 48.4085 36.6734 46.442 36.6734 44.014C36.6734 41.586 34.2545 39.6194 31.2717 39.6194Z" fill="#FA7070"/>
</svg>
