<svg width="177" height="177" viewBox="0 0 162 162" fill="none" xmlns="http://www.w3.org/2000/svg">
<g clip-path="url(#clip0_6_6)">
<path d="M38.9639 31.223C46.336 31.223 52.3122 25.2468 52.3122 17.8747C52.3122 10.5027 46.336 4.52649 38.9639 4.52649C31.5919 4.52649 25.6157 10.5027 25.6157 17.8747C25.6157 25.2468 31.5919 31.223 38.9639 31.223Z" fill="#FA7070"/>
<path d="M92.8531 30.6212C90.5848 27.9568 86.5072 27.567 83.7744 29.8929C80.866 32.3691 68.6005 42.8114 66.8109 44.3353L43.2626 37.5898L53.1342 37.8249C51.5177 36.2416 49.3088 35.2598 46.8675 35.249L34.1147 35.1968C32.4997 35.1901 30.9019 35.5287 29.4284 36.1894L3.80701 47.68C0.808105 49.0247 -0.697359 52.4109 0.313245 55.538L9.46152 83.8444C10.5553 87.229 14.1855 89.0863 17.5707 87.9921C20.9553 86.898 22.8126 83.2679 21.7185 79.8829L14.3459 57.0719L25.3287 52.148C25.6173 91.0948 25.6362 87.1562 25.4939 88.0469L21.0819 115.655L8.42845 146.837C6.82363 150.792 8.72872 155.3 12.6841 156.905C16.6402 158.51 21.1467 156.604 22.7516 152.649L35.7359 120.65C35.9558 120.108 36.1137 119.542 36.2061 118.964L40.3773 92.8651L47.163 119.267L47.8018 149.904C47.8904 154.161 51.4092 157.558 55.6901 157.47C59.9575 157.381 63.345 153.85 63.2558 149.582L62.5983 118.049C62.5859 117.454 62.5049 116.863 62.3565 116.286L55.6569 90.22L55.7829 59.1023L40.6387 50.2998L66.1828 57.9955C66.1847 57.9961 66.1866 57.9961 66.1885 57.9968C68.3053 58.6005 70.5391 58.0638 72.1319 56.7077L92.1238 39.7005C94.8313 37.3952 95.1594 33.33 92.8531 30.6212Z" fill="#FA7070"/>
<path d="M161.9 79.445C161.675 78.9688 161.096 78.6727 160.455 78.9758C159.498 79.4283 158.513 79.7918 157.562 80.0696C155.775 80.6097 153.303 81.047 150.958 80.8682C148.682 80.736 146.777 80.0443 145.095 79.0707C144.852 77.7193 144.298 76.429 143.457 75.3102L129.221 56.3923C129.221 56.3923 129.524 54.2777 129.855 51.8911C126.749 52.3676 122.813 52.4758 121.446 49.6613C120.038 46.7649 122.854 43.7607 123.78 42.7735C124.535 41.9676 125.558 41.0234 126.465 40.3169L126.406 40.2811C124.179 38.9298 121.385 38.9317 119.161 40.2865L115.888 39.5224C115.293 39.3835 114.666 39.5072 114.168 39.8632C113.671 40.2188 113.351 40.7712 113.29 41.38L113.018 44.0866C112.797 46.2951 114.048 48.3878 116.099 49.2377C116.982 49.6034 117.673 50.321 118.01 51.2155C118.347 52.1097 118.299 53.1032 117.878 53.961C116.563 56.6375 114.747 60.49 113.493 63.7693L99.5169 55.5908C98.1482 54.7897 96.3892 55.25 95.5884 56.6188C94.7873 57.9876 95.2477 59.7465 96.6164 60.5473L112.101 69.6089L112.077 69.6434C113.211 70.6255 120.721 76.4534 127.597 81.6871C128.281 80.0718 129.302 78.5195 130.652 77.1514C131.25 76.5448 132.227 76.5385 132.833 77.1368C133.439 77.7352 133.446 78.7116 132.848 79.3178C131.396 80.7885 130.4 82.7091 129.849 84.6929C128.999 87.7513 128.744 92.3332 129.57 95.7143L126.308 104.535C112.033 104.935 100.582 116.623 100.582 130.995C100.582 145.619 112.437 157.474 127.061 157.474C141.684 157.474 153.54 145.619 153.54 130.995C153.54 118.147 144.388 107.44 132.249 105.027L135.017 97.5426C137.849 95.6011 140.95 92.9762 142.7 90.3762C143.562 89.0961 144.883 86.0725 145.033 84.5022C147.158 84.9749 149.165 85.0704 151.081 84.8375C153.241 84.6214 155.942 83.8706 158.557 82.5487C159.551 82.0513 160.58 81.4457 161.566 80.735C161.967 80.448 162.118 79.907 161.9 79.445Z" fill="#FA7070"/>
<path d="M132.589 44.2451C131.708 42.4327 129.961 41.4639 129.028 41.9173C128.096 42.3704 123.061 46.6346 123.942 48.4479C124.823 50.2606 131.287 48.9368 132.22 48.4833C133.152 48.0303 133.471 46.0581 132.589 44.2451Z" fill="#FA7070"/>
</g>
<defs>
<clipPath id="clip0_6_6">
<rect width="162" height="162" fill="white"/>
</clipPath>
</defs>
</svg>
