<svg width="177" height="177" viewBox="0 0 177 177" fill="none" xmlns="http://www.w3.org/2000/svg">
<path d="M85.9366 109.761L76.9414 104.318C72.4463 104.892 51.7016 107.544 48.3463 107.973C44.1874 108.505 40.0649 106.449 38.455 102.831C35.1311 95.3621 26.4781 74.6618 26.4781 74.6618L43.8034 98.059C45.2301 99.9856 47.6037 101.03 50.0385 100.718L78.4667 97.0844C82.138 96.6153 84.7339 93.2585 84.2641 89.5875C83.7947 85.9161 80.4355 83.3203 76.7672 83.7901L52.2361 86.9263L35.5238 64.3574L43.2568 71.136C43.4373 70.5054 43.4342 70.5168 43.7225 69.5108C45.2425 64.206 42.1741 58.673 36.8693 57.1537C34.4708 56.4667 32.0104 56.1466 29.5632 56.1684C29.5545 56.1684 29.5459 56.1684 29.5372 56.1684C24.9622 56.2133 20.4342 57.471 16.4468 59.892C10.3189 63.6124 6.02251 69.722 4.59407 76.7471L0.354365 97.6047C-0.702104 102.801 0.631619 108.198 3.98701 112.304C7.19064 116.225 11.915 118.568 16.9509 118.773C23.0463 119.02 25.0037 118.997 33.3172 118.929L9.36477 139.264C5.97896 142.138 5.56446 147.213 8.43863 150.598C11.3135 153.984 16.3877 154.399 19.7732 151.524L60.4956 116.954C62.0931 115.598 63.0583 113.711 63.282 111.717L78.998 121.228C82.165 123.144 86.2848 122.131 88.2006 118.964C90.1169 115.798 89.1029 111.678 85.9366 109.761Z" fill="#A1C398"/>
<path d="M43.3228 53.1463C51.4918 53.1463 58.1141 46.5241 58.1141 38.3551C58.1141 30.1861 51.4918 23.5638 43.3228 23.5638C35.1538 23.5638 28.5316 30.1861 28.5316 38.3551C28.5316 46.5241 35.1538 53.1463 43.3228 53.1463Z" fill="#A1C398"/>
<path d="M176.787 127.693C176.254 123.099 174.701 118.066 170.729 114.359C164.142 108.213 160.297 108.5 124.574 103.222C124.574 103.222 122.83 100.861 120.85 98.2077C120.51 98.6651 120.167 99.1055 119.838 99.5051C117.404 102.467 114.109 105.428 110.474 104.144C106.301 102.67 106.156 97.0129 106.109 95.1544C106.07 93.6372 106.159 91.7265 106.364 90.1597L106.271 90.1815C102.789 91.0088 100.059 93.7073 99.1905 97.1796L95.2523 99.5905C94.5356 100.029 94.0427 100.755 93.8995 101.583C93.7564 102.412 93.9766 103.261 94.5042 103.915L96.8512 106.824C98.766 109.198 102.01 110.036 104.836 108.888C106.052 108.394 107.421 108.429 108.613 108.978C109.805 109.528 110.718 110.545 111.134 111.79C112.723 116.551 115.279 123.764 117.613 128.395L107.19 147.607C106.151 149.523 106.861 151.918 108.777 152.957C110.691 153.996 113.086 153.286 114.126 151.37L124.455 132.331C129.154 131.804 137.191 130.828 145.059 129.824C145.325 125.133 147.802 120.238 152.179 116.711C153.066 115.997 154.41 116.103 155.159 117.033C155.893 117.944 155.75 119.278 154.838 120.013C153.092 121.42 151.667 123.143 150.683 125.057C149.057 128.867 148.513 134.51 150.451 138.251C148.968 140.984 150.021 139.044 145.375 147.607C144.336 149.522 145.046 151.918 146.961 152.957C148.877 153.996 151.272 153.285 152.311 151.37C156.984 142.757 155.961 144.644 158.705 139.585C163.644 138.08 166.956 134.664 168.644 129.829C169.31 128.453 169.753 126.896 169.916 125.233C170.505 126.287 171.075 127.588 171.444 128.802C172.357 131.552 172.655 134.95 172.5 137.881C172.432 139.287 172.254 140.752 171.951 142.184C171.812 142.846 172.161 143.535 172.81 143.8C173.542 144.1 174.378 143.75 174.678 143.018C175.299 141.501 175.78 139.937 176.133 138.416C176.885 135.326 177.268 131.198 176.787 127.693Z" fill="#A1C398"/>
<path d="M116.144 88.091C113.532 87.1683 110.889 87.9085 110.415 89.2516C109.941 90.5939 109.132 99.6247 111.744 100.547C114.356 101.47 119.399 93.9355 119.873 92.5924C120.348 91.2494 118.756 89.0137 116.144 88.091Z" fill="#A1C398"/>
</svg>
