<svg width="57" height="57" viewBox="0 0 57 57" fill="none" xmlns="http://www.w3.org/2000/svg">
<path d="M29.6685 1.83286C32.5844 1.78833 35.479 1.81149 38.3717 1.78833C38.4679 5.40605 39.9357 8.66217 42.2709 11.074L42.2673 11.0704C44.7807 13.3344 48.051 14.8021 51.6563 15.0515L51.7062 15.0551V24.0255C48.3004 23.94 45.0977 23.1544 42.2103 21.8042L42.3564 21.8648C40.9599 21.1933 39.7789 20.5039 38.6567 19.7344L38.7493 19.795C38.728 26.2948 38.7707 32.7946 38.7048 39.2712C38.5213 42.5718 37.4241 45.5821 35.6642 48.0955L35.6998 48.0403C32.7572 52.2547 27.9906 55.021 22.5702 55.1849H22.5453C22.3262 55.1956 22.0679 55.2009 21.8079 55.2009C18.7263 55.2009 15.846 54.3423 13.3915 52.8514L13.4627 52.8924C8.99534 50.2045 5.91378 45.6053 5.34378 40.2562L5.33665 40.1832C5.29212 39.0699 5.27075 37.9566 5.31528 36.8665C6.18809 28.3539 13.3202 21.7686 21.9896 21.7686C22.9639 21.7686 23.9187 21.8523 24.8467 22.0109L24.7469 21.9966C24.7915 25.2901 24.6579 28.5855 24.6579 31.879C23.9044 31.6065 23.0352 31.4479 22.1285 31.4479C18.8011 31.4479 15.9707 33.5747 14.9233 36.5441L14.9073 36.5975C14.6704 37.3581 14.5332 38.2327 14.5332 39.1376C14.5332 39.5045 14.5564 39.8679 14.5992 40.2241L14.5956 40.1814C15.187 43.8258 18.3113 46.5761 22.0786 46.5761C22.1873 46.5761 22.2942 46.5743 22.401 46.569H22.385C24.991 46.4906 27.2532 45.0887 28.5321 43.0171L28.5499 42.9851C29.0255 42.3225 29.3515 41.5209 29.4601 40.6499L29.4619 40.6249C29.6846 36.6403 29.5955 32.6788 29.6169 28.6941C29.6382 19.7237 29.5955 10.7747 29.6614 1.82752L29.6685 1.83286Z" fill="#FA7070"/>
</svg>
