<svg width="56" height="56" viewBox="0 0 55 55" fill="none" xmlns="http://www.w3.org/2000/svg">
<g clip-path="url(#clip0_6_100)">
<path fill-rule="evenodd" clip-rule="evenodd" d="M47.0887 14.8559C46.6746 15.1794 46.4417 15.6809 46.4676 16.205C46.4837 16.6741 46.4967 17.1432 46.4967 17.6188C46.4967 32.8118 35.7976 48.5321 17.8935 48.5321C14.3929 48.5321 10.944 47.8365 7.70227 46.4938C11.6105 45.8468 15.3343 44.1321 18.4435 41.5147C18.9579 41.0779 19.1487 40.3727 18.9255 39.7385C18.7023 39.1044 18.107 38.6741 17.4308 38.658C14.4123 38.5965 11.6784 36.8624 10.0867 34.1544C11.177 34.1221 12.3514 33.9506 13.2314 33.695C13.9432 33.4879 14.422 32.8247 14.3993 32.0871C14.3735 31.3462 13.8493 30.7185 13.1246 30.56C9.91199 29.8644 7.54699 27.2147 6.74785 23.575C7.6667 23.7594 8.53375 23.8176 9.01259 23.8306C9.71785 23.9082 10.3682 23.4165 10.6011 22.7403C10.8308 22.0674 10.5946 21.32 10.0155 20.9027C7.77993 19.2915 5.3858 16.2859 5.3858 12.6979C5.3858 11.8147 5.4958 10.9412 5.70609 10.0968C11.2967 16.3182 18.9255 20.0744 27.0137 20.5112C27.5573 20.5403 28.007 20.3268 28.3337 19.945C28.6605 19.5632 28.7899 19.0456 28.6864 18.5538C28.5246 17.8194 28.4437 17.0591 28.4437 16.2891C28.4437 10.8765 32.4846 6.47323 37.4508 6.47323C39.9484 6.47323 42.2714 7.55705 43.9861 9.5306C44.3679 9.9706 44.9696 10.1744 45.539 10.0515C46.3608 9.87676 47.1696 9.65676 47.9655 9.38823C47.4931 9.86705 46.9723 10.2941 46.4061 10.6597C45.7687 11.0706 45.5035 11.8632 45.7623 12.575C46.0211 13.2868 46.7523 13.7171 47.4899 13.6232C47.9105 13.5682 48.3279 13.5035 48.742 13.4227C48.2178 13.9306 47.6679 14.4094 47.0887 14.8559ZM54.5849 9.13589C54.1061 8.60205 53.3361 8.45326 52.6826 8.75737C52.5661 8.81237 52.4496 8.86737 52.3299 8.92237C52.8185 8.05529 53.2164 7.12676 53.5043 6.15294C53.6985 5.50589 53.4687 4.80705 52.9285 4.39942C52.3849 3.995 51.6537 3.96265 51.0811 4.32823C49.4117 5.39913 47.6161 6.18529 45.7396 6.68029C43.4976 4.48029 40.5276 3.23792 37.4508 3.23792C30.702 3.23792 25.2084 9.09381 25.2084 16.2891C25.2084 16.5609 25.2149 16.8327 25.2311 17.1012C17.9323 16.1565 11.1867 12.1738 6.4923 5.97176C6.1623 5.535 5.62849 5.31176 5.08173 5.33765C4.53173 5.37971 4.03996 5.69676 3.77788 6.18205C2.71349 8.15557 2.15054 10.4106 2.15054 12.6979C2.15054 15.1794 2.9723 17.4247 4.16291 19.3077C3.60644 19.5665 3.21817 20.1262 3.21817 20.7797V20.9285C3.21817 24.9338 4.64496 28.4312 7.0423 30.7962C6.78349 30.8803 6.5473 31.0324 6.35644 31.2362C6.16727 31.4424 6.03476 31.6942 5.97182 31.9669C5.90888 32.2397 5.91766 32.524 5.9973 32.7924C7.16525 36.7168 9.94436 39.7288 13.3997 41.0941C9.87967 43.0871 5.70288 43.8765 1.81407 43.4074C1.05378 43.2941 0.367882 43.7471 0.10583 44.4394C-0.159459 45.135 0.0864368 45.9244 0.701119 46.345C5.84849 49.8909 11.795 51.7674 17.8935 51.7674C37.8229 51.7674 49.732 34.4035 49.732 17.6188C49.732 17.3729 49.7288 17.1303 49.7223 16.8877C51.6861 15.2506 53.3749 13.2965 54.7564 11.0706C55.135 10.4591 55.067 9.66971 54.5849 9.13589Z" fill="#FA7070"/>
</g>
<defs>
<clipPath id="clip0_6_100">
<rect width="55" height="55" fill="white"/>
</clipPath>
</defs>
</svg>
